<svg width="56" height="40" viewBox="0 0 56 40" fill="none" xmlns="http://www.w3.org/2000/svg"><path d="M56 34.667C56 37.6 53.6 40 50.667 40H5.333C2.4 40 0 37.6 0 34.667V5.333C0 2.4 2.4 0 5.333 0h45.334C53.6 0 56 2.4 56 5.333v29.334z" fill="#F5F5F5"/><path d="M56 34.667C56 37.6 53.6 40 50.667 40H17.333S48.8 34.933 56 20v14.667zM25.333 20c0 2.267 1.734 4 4 4 2.267 0 4-1.733 4-4s-1.733-4-4-4c-2.266 0-4 1.733-4 4z" fill="#FF6D00"/><path d="M10.933 16H12.4v8h-1.467v-8zm8 4c0 2.267 1.734 4 4 4 .667 0 1.2-.133 1.867-.4v-1.733c-.533.533-1.067.8-1.867.8-1.466 0-2.533-1.067-2.533-2.667 0-1.467 1.067-2.667 2.533-2.667.667 0 1.2.267 1.867.8V16.4c-.667-.267-1.2-.533-1.867-.533-2.266.133-4 2-4 4.133zM36.8 21.2L34.667 16h-1.6l3.333 8h.8l3.333-8h-1.6L36.8 21.2zm4.4 2.8h4.267v-1.333h-2.8v-2.134h2.666V19.2h-2.666v-1.867h2.8V16H41.2v8zm10.133-5.6c0-1.467-.933-2.4-2.666-2.4H46.4v8h1.467v-3.2H48l2.133 3.2H52l-2.4-3.333c1.067-.267 1.733-1.067 1.733-2.267zm-3.066 1.333h-.4v-2.4h.4c.933 0 1.466.4 1.466 1.2 0 .667-.4 1.2-1.466 1.2zM6.267 16H4v8h2.133c3.334 0 4.134-2.8 4.134-4 .133-2.4-1.6-4-4-4zm-.4 6.667h-.4v-5.334H6c2 0 2.8 1.334 2.8 2.667 0 .533-.133 2.667-2.933 2.667zm10.533-3.6c-.933-.4-1.2-.534-1.2-.934 0-.533.533-.8 1.067-.8.4 0 .8.134 1.2.667l.8-1.067C17.6 16.267 16.933 16 16 16c-1.333 0-2.4.933-2.4 2.267 0 1.066.533 1.6 1.867 2.133.8.267 1.466.533 1.466 1.2 0 .667-.533 1.067-1.2 1.067-.666 0-1.333-.4-1.6-1.067l-.933.933C13.867 23.6 14.667 24 15.867 24c1.6 0 2.666-1.067 2.666-2.533 0-1.2-.533-1.734-2.133-2.4z" fill="#000"/></svg>