<svg width="60" height="60" viewBox="0 0 60 60" fill="none" xmlns="http://www.w3.org/2000/svg"><g clip-path="url(#clip0)"><path d="M55.8 32.087l-1.554-6.215a.94.94 0 00.743-.919v-1.002a3.95 3.95 0 00-3.945-3.945h-7.077v-2.067c0-1.07-.871-1.942-1.942-1.942h-13.16l7.997-3.198a.94.94 0 10-.697-1.745l-6.548 2.619c1.995-1.28 3.97-2.69 4.72-3.674a4.38 4.38 0 00-.825-6.133 4.38 4.38 0 00-6.132.826c-1.07 1.402-2.48 5.34-3.392 8.116-.913-2.775-2.324-6.714-3.393-8.116a4.38 4.38 0 00-6.132-.826A4.38 4.38 0 0013.637 10c.752.985 2.726 2.394 4.721 3.674l-6.548-2.62a.94.94 0 10-.698 1.745l7.997 3.2H5.95c-1.07 0-1.94.87-1.94 1.94v17.036a.94.94 0 001.878 0V17.94c0-.035.028-.063.063-.063h36.075c.035 0 .063.028.063.063v17.036a.94.94 0 001.879 0V33.91h11.087a3.074 3.074 0 012.92 2.13h-2.922a.94.94 0 00-.94.939v2.004a2.947 2.947 0 002.944 2.943h1.065v4.134h-2.457a5.96 5.96 0 00-5.622-4.008 5.96 5.96 0 00-5.623 4.008h-.453v-7.077a.94.94 0 00-1.879 0v7.077H22.596a5.96 5.96 0 00-5.623-4.009 5.96 5.96 0 00-5.623 4.009h-5.4a.063.063 0 01-.063-.063V43.93h4.071a.94.94 0 000-1.879H.94a.94.94 0 000 1.88h3.07v2.066c0 1.07.87 1.942 1.941 1.942h5.075l-.002.062c0 3.281 2.67 5.95 5.95 5.95 3.28 0 5.95-2.669 5.95-5.95l-.002-.062h21.172l-.001.062a5.957 5.957 0 005.95 5.95c3.28 0 5.95-2.669 5.95-5.95l-.002-.062h3.07a.94.94 0 00.94-.94V36.98a4.955 4.955 0 00-4.2-4.892zM20.262 12.648c-3.706-2.303-4.805-3.362-5.13-3.789a2.499 2.499 0 01.47-3.499c.452-.344.983-.51 1.511-.51.753 0 1.497.338 1.988.982.909 1.191 2.332 5.202 3.272 8.092a102.43 102.43 0 01-2.111-1.276zm5.34 1.276c.94-2.89 2.363-6.9 3.272-8.093a2.5 2.5 0 013.499-.47 2.5 2.5 0 01.47 3.498c-.325.427-1.424 1.486-5.13 3.789-.748.465-1.477.902-2.11 1.276zm18.365 7.96h7.077a2.07 2.07 0 012.067 2.067v.063h-9.144v-2.13zm0 10.147v-6.138h8.348l1.534 6.138h-9.882zM16.973 52.072a4.076 4.076 0 01-4.071-4.07 4.076 4.076 0 014.07-4.072 4.076 4.076 0 014.072 4.071 4.076 4.076 0 01-4.071 4.071zm33.069 0a4.076 4.076 0 01-4.071-4.07 4.076 4.076 0 014.07-4.072 4.076 4.076 0 014.072 4.071 4.076 4.076 0 01-4.071 4.071zm8.08-12.025h-1.066a1.066 1.066 0 01-1.064-1.064v-1.065h2.129v2.13z" fill="url(#paint0_linear)"/><path d="M16.973 46.06c-1.07 0-1.942.87-1.942 1.941 0 1.071.871 1.942 1.942 1.942 1.07 0 1.941-.871 1.941-1.942 0-1.07-.87-1.941-1.941-1.941z" fill="url(#paint1_linear)"/><path d="M50.042 46.06c-1.07 0-1.942.87-1.942 1.941 0 1.071.871 1.942 1.942 1.942 1.07 0 1.941-.871 1.941-1.942 0-1.07-.87-1.941-1.941-1.941z" fill="url(#paint2_linear)"/><path d="M39.019 42.051h-14.03a.94.94 0 000 1.88h14.03a.94.94 0 000-1.88z" fill="url(#paint3_linear)"/><path d="M14.969 38.043H2.944a.94.94 0 000 1.88h12.025a.94.94 0 000-1.88z" fill="url(#paint4_linear)"/><path d="M14.969 24.014H10.96a.94.94 0 00-.94.94v8.016a.94.94 0 001.88 0V29.9h2.067a.94.94 0 000-1.879H11.9v-2.13h3.069a.94.94 0 000-1.878z" fill="url(#paint5_linear)"/><path d="M22.362 30.341a3.444 3.444 0 001.563-2.883 3.448 3.448 0 00-3.445-3.444h-2.505a.94.94 0 00-.94.94v8.016a.94.94 0 001.88 0v-2.067h1.563l1.726 2.588a.938.938 0 101.563-1.042l-1.405-2.107zm-1.882-1.317h-1.566v-3.131h1.566c.864 0 1.566.702 1.566 1.566 0 .863-.702 1.565-1.566 1.565z" fill="url(#paint6_linear)"/><path d="M30 32.03h-3.069v-2.132l.063.003h2.004a.94.94 0 000-1.879h-2.004c-.022 0-.042.002-.063.003v-2.132H30a.94.94 0 000-1.88h-4.008a.94.94 0 00-.94.94v8.017c0 .519.42.94.94.94H30a.94.94 0 000-1.88z" fill="url(#paint7_linear)"/><path d="M37.015 32.03h-3.07v-2.129h1.065a.94.94 0 000-1.879h-1.064v-2.13h3.069a.94.94 0 000-1.878h-4.009a.94.94 0 00-.94.94v8.016c0 .519.421.94.94.94h4.009a.94.94 0 000-1.88z" fill="url(#paint8_linear)"/></g><defs><linearGradient id="paint0_linear" x1="0" y1="53.951" x2="62.843" y2="50.165" gradientUnits="userSpaceOnUse"><stop stop-color="#3591D0"/><stop offset="1" stop-color="#26B8DC"/></linearGradient><linearGradient id="paint1_linear" x1="0" y1="53.951" x2="62.843" y2="50.165" gradientUnits="userSpaceOnUse"><stop stop-color="#3591D0"/><stop offset="1" stop-color="#26B8DC"/></linearGradient><linearGradient id="paint2_linear" x1="0" y1="53.951" x2="62.843" y2="50.165" gradientUnits="userSpaceOnUse"><stop stop-color="#3591D0"/><stop offset="1" stop-color="#26B8DC"/></linearGradient><linearGradient id="paint3_linear" x1="0" y1="53.951" x2="62.843" y2="50.165" gradientUnits="userSpaceOnUse"><stop stop-color="#3591D0"/><stop offset="1" stop-color="#26B8DC"/></linearGradient><linearGradient id="paint4_linear" x1="0" y1="53.951" x2="62.843" y2="50.165" gradientUnits="userSpaceOnUse"><stop stop-color="#3591D0"/><stop offset="1" stop-color="#26B8DC"/></linearGradient><linearGradient id="paint5_linear" x1="0" y1="53.951" x2="62.843" y2="50.165" gradientUnits="userSpaceOnUse"><stop stop-color="#3591D0"/><stop offset="1" stop-color="#26B8DC"/></linearGradient><linearGradient id="paint6_linear" x1="0" y1="53.951" x2="62.843" y2="50.165" gradientUnits="userSpaceOnUse"><stop stop-color="#3591D0"/><stop offset="1" stop-color="#26B8DC"/></linearGradient><linearGradient id="paint7_linear" x1="0" y1="53.951" x2="62.843" y2="50.165" gradientUnits="userSpaceOnUse"><stop stop-color="#3591D0"/><stop offset="1" stop-color="#26B8DC"/></linearGradient><linearGradient id="paint8_linear" x1="0" y1="53.951" x2="62.843" y2="50.165" gradientUnits="userSpaceOnUse"><stop stop-color="#3591D0"/><stop offset="1" stop-color="#26B8DC"/></linearGradient><clipPath id="clip0"><path fill="#fff" d="M0 0h60v60H0z"/></clipPath></defs></svg>