<svg width="61" height="60" viewBox="0 0 61 60" fill="none" xmlns="http://www.w3.org/2000/svg"><path fill-rule="evenodd" clip-rule="evenodd" d="M33.397 2.211C32.419 1.111 31.432 0 30.002 0s-2.416 1.11-3.394 2.21l-.001.001c-.579.652-1.153 1.298-1.504 1.36-.36.065-1.13-.357-1.898-.776l-.002-.002h-.001c-1.27-.695-2.532-1.386-3.825-.912-1.307.48-1.797 1.831-2.285 3.176-.289.797-.577 1.591-.852 1.75-.275.158-1.12.013-1.965-.133h-.004c-1.42-.245-2.838-.49-3.89.386-1.048.87-1.042 2.291-1.035 3.713.004.839.008 1.678-.198 1.918-.206.24-1.043.38-1.882.52h-.003c-1.425.236-2.852.473-3.55 1.647-.697 1.17-.217 2.507.266 3.847v.001c.29.804.58 1.611.462 1.921-.116.31-.86.735-1.607 1.163l-.002.001c-1.264.725-2.537 1.454-2.788 2.822-.248 1.346.653 2.465 1.564 3.594v.001c.56.693 1.123 1.392 1.123 1.792 0 .4-.563 1.098-1.122 1.791-.911 1.13-1.813 2.25-1.565 3.595.251 1.368 1.524 2.098 2.788 2.822l.002.002c.748.428 1.49.853 1.607 1.162.117.31-.173 1.117-.462 1.922-.482 1.34-.963 2.677-.267 3.848.699 1.174 2.126 1.411 3.551 1.647.84.14 1.68.279 1.885.52.206.24.202 1.079.198 1.918-.007 1.421-.013 2.843 1.034 3.713 1.053.875 2.47.63 3.89.387h.002c.846-.147 1.693-.293 1.968-.134.275.159.563.953.852 1.75v.002c.489 1.345.978 2.694 2.285 3.173 1.294.474 2.556-.216 3.826-.912l.002-.001c.768-.42 1.538-.841 1.898-.777.351.063.925.709 1.504 1.36v.002c.979 1.1 1.966 2.21 3.395 2.21 1.43 0 2.417-1.11 3.395-2.211v-.002c.58-.65 1.153-1.296 1.504-1.358.36-.065 1.132.357 1.9.778 1.27.695 2.532 1.386 3.825.912 1.308-.48 1.798-1.83 2.286-3.176l.001-.005c.289-.795.576-1.586.85-1.745.276-.158 1.121-.013 1.966.133h.003c1.42.245 2.838.49 3.891-.385 1.047-.87 1.041-2.292 1.035-3.714v-.005c-.004-.837-.008-1.673.197-1.913.206-.24 1.042-.38 1.88-.519h.005c1.425-.237 2.853-.474 3.551-1.648.697-1.171.216-2.507-.266-3.848-.29-.804-.58-1.611-.463-1.921.117-.31.86-.735 1.607-1.163 1.266-.725 2.539-1.455 2.791-2.824.248-1.346-.654-2.465-1.565-3.594l-.002-.002c-.558-.693-1.12-1.39-1.12-1.79 0-.399.562-1.097 1.12-1.79l.002-.001.001-.002c.91-1.129 1.812-2.248 1.564-3.593-.252-1.37-1.525-2.098-2.79-2.823h-.001l-.002-.001c-.746-.428-1.488-.854-1.605-1.162-.117-.31.173-1.117.463-1.922.482-1.34.963-2.677.266-3.848-.698-1.174-2.125-1.41-3.55-1.647-.84-.14-1.68-.279-1.886-.52-.205-.24-.201-1.075-.197-1.912v-.006c.006-1.421.012-2.843-1.035-3.713-1.053-.875-2.471-.63-3.891-.386h-.003c-.845.146-1.69.292-1.965.133-.275-.159-.562-.95-.85-1.745l-.002-.004c-.488-1.346-.978-2.696-2.285-3.176-1.294-.474-2.557.216-3.827.912-.767.42-1.54.842-1.9.778-.35-.063-.924-.709-1.503-1.36zM43.553 16.31a1.18 1.18 0 011.19-1.172c.368 0 .698.165.917.425 3.59 3.777 5.788 8.854 5.788 14.437 0 5.834-2.4 11.116-6.282 14.94a21.544 21.544 0 01-15.165 6.188 21.7 21.7 0 01-7.224-1.229 1.175 1.175 0 01-.85-1.123c0-.647.533-1.172 1.19-1.172.12 0 .236.018.345.05l.003.002a19.29 19.29 0 006.536 1.132 19.155 19.155 0 0013.485-5.503c3.452-3.4 5.586-8.097 5.586-13.285 0-4.97-1.96-9.49-5.158-12.85a1.125 1.125 0 01-.077-.08l-.003-.004a1.156 1.156 0 01-.282-.756zm-3.59-2.975c0-.647.532-1.172 1.189-1.172s1.19.525 1.19 1.172c0 .647-.533 1.172-1.19 1.172-.657 0-1.19-.525-1.19-1.172zm-9.962-4.463c2.56 0 5.014.442 7.29 1.252.49.145.848.593.848 1.123a1.18 1.18 0 01-1.19 1.172c-.165 0-.323-.033-.466-.093a19.29 19.29 0 00-6.482-1.114 19.155 19.155 0 00-13.486 5.503c-3.45 3.4-5.585 8.097-5.585 13.285 0 4.958 1.95 9.467 5.134 12.825.026.024.05.05.074.077l.004.006c.175.203.28.466.28.754a1.18 1.18 0 01-1.19 1.172c-.367 0-.695-.164-.913-.421C10.744 40.638 8.555 35.57 8.555 30c0-5.834 2.4-11.116 6.282-14.94a21.542 21.542 0 0115.165-6.188zM17.66 46.665c0-.647.533-1.172 1.19-1.172a1.18 1.18 0 011.189 1.172 1.18 1.18 0 01-1.19 1.172c-.656 0-1.19-.525-1.19-1.172zM31.614 3.747h.001l.001.002c.852.958 1.696 1.908 2.867 2.118 1.19.213 2.331-.413 3.468-1.035.792-.433 1.58-.864 1.85-.765.265.097.57.939.874 1.777.433 1.192.864 2.381 1.892 2.974 1.034.597 2.304.378 3.573.16l.009-.002c.873-.15 1.743-.3 1.943-.133.207.172.203 1.047.199 1.92-.006 1.271-.012 2.541.755 3.437.764.893 2.033 1.104 3.304 1.315h.004c.879.146 1.758.292 1.895.523.137.23-.161 1.059-.461 1.891-.431 1.2-.864 2.402-.444 3.512.414 1.096 1.521 1.73 2.634 2.368l.003.002c.795.455 1.594.913 1.65 1.215.056.304-.514 1.012-1.09 1.726l-.002.003c-.818 1.014-1.643 2.037-1.643 3.245 0 1.208.824 2.23 1.641 3.243l.002.002c.577.716 1.148 1.424 1.092 1.73-.056.301-.855.759-1.65 1.214l-.001.001c-1.114.638-2.222 1.273-2.636 2.369-.42 1.11.013 2.313.444 3.512.3.832.598 1.662.461 1.892-.137.23-1.019.377-1.899.523h-.003c-1.27.21-2.537.421-3.301 1.314-.767.896-.761 2.166-.755 3.437.004.874.008 1.748-.199 1.92-.2.167-1.074.017-1.949-.134h-.003c-1.269-.22-2.539-.438-3.574.16-1.027.592-1.458 1.78-1.89 2.972v.001c-.305.838-.61 1.68-.876 1.777-.27.1-1.057-.332-1.849-.765-1.136-.622-2.279-1.247-3.468-1.034-1.171.209-2.016 1.16-2.868 2.119-.622.7-1.25 1.407-1.613 1.407s-.99-.706-1.613-1.407c-.852-.96-1.696-1.91-2.869-2.12-1.189-.212-2.33.413-3.466 1.034h-.002c-.791.434-1.579.865-1.848.766-.266-.097-.572-.939-.875-1.777-.433-1.192-.864-2.381-1.892-2.974-1.034-.597-2.303-.378-3.57-.16h-.003c-.876.151-1.751.302-1.952.136-.207-.173-.203-1.047-.199-1.921.006-1.271.012-2.541-.755-3.437-.764-.893-2.032-1.103-3.302-1.314h-.003c-.88-.146-1.761-.293-1.898-.523-.137-.23.161-1.06.46-1.892h.001c.431-1.199.864-2.401.444-3.512-.415-1.096-1.523-1.731-2.637-2.37l-.006-.003c-.793-.454-1.589-.91-1.644-1.211-.056-.306.515-1.014 1.092-1.73l.002-.002c.817-1.013 1.64-2.035 1.64-3.243 0-1.209-.824-2.231-1.642-3.245l-.002-.003c-.576-.714-1.146-1.422-1.09-1.726.055-.302.855-.76 1.65-1.215 1.114-.639 2.222-1.274 2.637-2.37.42-1.11-.013-2.313-.444-3.511-.3-.833-.598-1.663-.461-1.892.136-.231 1.015-.377 1.893-.523h.005c1.271-.211 2.54-.422 3.305-1.315.767-.896.761-2.166.755-3.436-.004-.874-.008-1.75.2-1.921.199-.167 1.07-.017 1.944.133l.007.002c1.268.218 2.538.437 3.573-.16 1.028-.593 1.458-1.78 1.89-2.972l.002-.002c.303-.838.609-1.68.875-1.777.27-.1 1.057.332 1.848.765 1.137.622 2.279 1.248 3.468 1.035 1.172-.21 2.017-1.16 2.869-2.12.622-.7 1.25-1.406 1.613-1.406s.99.706 1.613 1.406zm-1.648 34.482c.176-.026.355-.02.529.017 1.906-.067 3.406-1.601 3.37-3.448-.034-1.847-1.59-3.327-3.498-3.327-3.299.001-6.088-2.362-6.527-5.528-.438-3.166 1.61-6.158 4.792-7v-1.45c0-.824.69-1.493 1.542-1.493.852 0 1.542.669 1.542 1.493v1.36c3.049.622 5.231 3.225 5.236 6.242 0 .825-.69 1.493-1.542 1.493-.852 0-1.542-.668-1.542-1.493 0-1.873-1.568-3.39-3.501-3.39-1.934 0-3.502 1.517-3.502 3.39 0 1.872 1.568 3.39 3.502 3.39 3.374.001 6.2 2.47 6.549 5.72.347 3.25-1.898 6.23-5.2 6.899v1.403c0 .824-.69 1.493-1.542 1.493-.852 0-1.542-.669-1.542-1.493v-1.494c-2.861-.76-4.846-3.277-4.85-6.15 0-.826.69-1.494 1.541-1.494.852 0 1.543.668 1.543 1.493.003 1.72 1.335 3.168 3.1 3.367z" fill="url(#paint0_linear)"/><defs><linearGradient id="paint0_linear" x1=".002" y1="60" x2="62.908" y2="56.78" gradientUnits="userSpaceOnUse"><stop stop-color="#3591D0"/><stop offset="1" stop-color="#26B8DC"/></linearGradient></defs></svg>