<svg width="40" height="40" viewBox="0 0 40 40" fill="none" xmlns="http://www.w3.org/2000/svg"><path d="M28.71 2.784C27.52 1.39 25.366.792 22.61.792h-8c-.564 0-1.043.421-1.131.992l-3.33 21.678a.7.7 0 00.678.815h4.938l1.24-8.073-.038.252a1.15 1.15 0 011.126-.991h2.347c4.61 0 8.218-1.922 9.273-7.48.03-.165.058-.325.082-.481-.134-.073-.134-.073 0 0 .313-2.055-.003-3.453-1.085-4.72z" fill="#003087"/><path d="M28.71 2.784C27.52 1.39 25.366.792 22.61.792h-8c-.564 0-1.043.421-1.131.992l-3.33 21.678a.7.7 0 00.678.815h4.938l1.24-8.073-.038.252a1.15 1.15 0 011.126-.991h2.347c4.61 0 8.218-1.922 9.273-7.48.03-.165.058-.325.082-.481-.134-.073-.134-.073 0 0 .313-2.055-.003-3.453-1.085-4.72z" fill="#003087"/><path d="M18.339 7.53c.052-.343.267-.624.556-.767a.983.983 0 01.432-.1h6.27c.743 0 1.436.05 2.069.155a8.449 8.449 0 011.262.31c.311.106.601.23.867.376.314-2.056-.002-3.453-1.084-4.72C27.518 1.39 25.365.792 22.609.792H14.61c-.563 0-1.042.421-1.13.992l-3.33 21.677a.699.699 0 00.678.815h4.938l1.24-8.073 1.333-8.672z" fill="#002F86"/><path d="M29.796 7.504a16.69 16.69 0 01-.082.48c-1.055 5.559-4.664 7.481-9.273 7.481h-2.347a1.15 1.15 0 00-1.127.992l-1.201 7.82-.341 2.218a.612.612 0 00.593.713h4.162c.493 0 .912-.368.989-.867l.04-.218.785-5.103.05-.282c.078-.5.497-.867.99-.867h.622c4.032 0 7.19-1.682 8.112-6.544.385-2.032.186-3.729-.833-4.92a3.989 3.989 0 00-1.14-.903" fill="#009CDE"/><path d="M28.692 7.052a7.53 7.53 0 00-.498-.13 9.15 9.15 0 00-.528-.104 12.687 12.687 0 00-2.069-.154h-6.27a.97.97 0 00-.432.1c-.29.143-.503.423-.556.768l-1.333 8.672-.038.253a1.15 1.15 0 011.126-.992h2.347c4.61 0 8.219-1.921 9.273-7.48.031-.165.058-.324.082-.481a5.612 5.612 0 00-1.104-.452z" fill="#012069"/><path d="M2.635 34.089l-.53 3.126H0L1.552 28l3.22.006c.997 0 1.78.285 2.351.855.575.57.827 1.308.758 2.215-.05.62-.242 1.158-.579 1.614a3.214 3.214 0 01-1.336 1.044c-.55.24-1.168.36-1.853.36l-1.478-.005zm.29-1.716l1.268.013c.533-.013.942-.19 1.225-.532.283-.346.396-.77.339-1.272-.033-.257-.13-.46-.29-.607-.156-.152-.363-.237-.622-.254l-1.471-.006-.45 2.658zm8.693 4.842a1.904 1.904 0 01-.086-.62c-.456.515-1 .764-1.632.747-.579-.009-1.059-.207-1.44-.595a1.815 1.815 0 01-.536-1.412c.02-.742.322-1.312.905-1.708.583-.401 1.379-.602 2.389-.602l.677.013.074-.386.024-.336c-.016-.384-.203-.582-.56-.595-.443-.008-.716.243-.819.754l-2.031.006c.02-.46.166-.859.437-1.196.27-.342.638-.604 1.102-.785a3.751 3.751 0 011.49-.26c.505.013.946.123 1.323.33.382.202.667.487.856.854.19.363.26.783.216 1.26l-.499 3.221-.03.392c-.017.313.022.579.116.798l-.006.12h-1.97zm-1.158-1.38c.415.017.778-.17 1.09-.563l.203-1.101-.523-.006a1.345 1.345 0 00-.837.297 1.113 1.113 0 00-.413.766c-.02.173.01.316.092.43.087.11.216.169.388.177zm6.915-1.632l1.723-3.836h2.235L17.43 38.24c-.291.62-.628 1.068-1.01 1.342-.377.279-.829.418-1.354.418-.234 0-.532-.046-.893-.14l.154-1.525h.234c.25 0 .47-.042.659-.126.188-.08.346-.239.474-.475l.29-.57-1.066-6.797h2.093l.364 3.835z" fill="#002F86"/><path d="M24.038 34.25l-.544 2.963h-2.16l1.592-8.733 3.305.006c1.023 0 1.828.27 2.414.81.59.54.849 1.24.777 2.099a2.769 2.769 0 01-.594 1.53c-.346.431-.803.76-1.371.989-.565.228-1.199.342-1.902.342l-1.517-.006zm.297-1.626l1.302.012c.547-.012.966-.18 1.257-.504.29-.327.407-.73.348-1.205a.884.884 0 00-.297-.576c-.16-.144-.373-.224-.639-.24l-1.51-.006-.461 2.52zm8.923 4.589a1.68 1.68 0 01-.089-.588c-.467.488-1.026.724-1.674.708-.595-.008-1.087-.196-1.48-.564a1.65 1.65 0 01-.549-1.338c.021-.703.33-1.243.929-1.62.598-.379 1.416-.569 2.452-.569l.695.012.076-.366.025-.318c-.017-.364-.209-.551-.575-.563-.455-.008-.735.23-.84.713l-2.086.006c.021-.436.17-.813.449-1.133.278-.324.655-.572 1.131-.744.48-.176.99-.258 1.53-.246.517.012.97.116 1.358.312.392.192.684.462.878.81.194.343.268.741.221 1.193l-.512 3.053-.031.372c-.017.296.023.548.12.756l-.006.114h-2.023zm-1.188-1.308c.425.016.798-.162 1.118-.534l.209-1.043-.538-.006a1.453 1.453 0 00-.859.282c-.24.175-.381.417-.423.725-.021.164.01.3.094.408.089.104.222.16.399.168zm6.25 1.308h-2.086L37.914 28H40l-1.68 9.213z" fill="#009CDE"/></svg>