<svg width="64" height="40" viewBox="0 0 64 40" fill="none" xmlns="http://www.w3.org/2000/svg"><path d="M64 40H0V0h64v40z" fill="#fff"/><path d="M1.066 33.5h61.866v5.458H1.066V33.5z" fill="#F7B600"/><path d="M1.066 6.506h61.866V1.05H1.066v5.457zm29.704 4.928l-3.1 14.26h-3.75l3.1-14.26h3.75zm15.774 9.208l1.975-5.355 1.134 5.355h-3.108zm4.186 5.053h3.467l-3.029-14.261H47.97c-.721 0-1.327.412-1.596 1.045l-5.627 13.216h3.938l.78-2.13h4.812l.454 2.13zm-9.788-4.656c.015-3.764-5.289-3.972-5.254-5.654.013-.51.507-1.055 1.59-1.194.537-.068 2.02-.123 3.699.638l.657-3.026c-.903-.32-2.063-.63-3.508-.63-3.707 0-6.314 1.938-6.335 4.714-.024 2.053 1.863 3.198 3.281 3.882 1.462.699 1.952 1.147 1.945 1.772-.01.956-1.167 1.38-2.242 1.396-1.886.03-2.98-.502-3.852-.901l-.68 3.126c.877.395 2.494.739 4.169.757 3.94 0 6.518-1.916 6.53-4.88zM25.41 11.434l-6.075 14.26h-3.964l-2.99-11.38c-.181-.7-.339-.957-.89-1.253-.902-.482-2.391-.933-3.7-1.213l.088-.414h6.382c.812 0 1.543.532 1.73 1.453l1.579 8.253 3.9-9.706h3.94zM35.569 29.62h-1.524v1.395h1.704v.42h-2.217v-3.87h2.13v.419h-1.617v1.223h1.524v.413zm.967-2.262h.514v4.077h-.514v-4.077zm3.315 2.417c.006-.316-.134-.815-.712-.815-.525 0-.747.465-.788.815h1.5zm-1.506.362c.012.683.45.965.969.965.368 0 .596-.063.782-.144l.094.362c-.181.08-.496.178-.946.178-.87 0-1.389-.568-1.389-1.407 0-.838.502-1.493 1.325-1.493.928 0 1.167.793 1.167 1.304 0 .103-.005.177-.017.235h-1.985zm4.797 1.2a2.014 2.014 0 01-.811.161c-.852 0-1.407-.568-1.407-1.419 0-.855.595-1.481 1.518-1.481.303 0 .572.074.712.15l-.117.384a1.275 1.275 0 00-.595-.132c-.648 0-.998.476-.998 1.05 0 .644.42 1.04.98 1.04.292 0 .485-.069.63-.132l.088.38zm1.441-3.347v.665h.735v.385h-.735v1.499c0 .345.099.54.385.54a.96.96 0 00.298-.035l.023.385a1.41 1.41 0 01-.455.069c-.24 0-.432-.08-.555-.212-.14-.156-.198-.402-.198-.73V29.04h-.438v-.385h.438v-.517l.502-.149zm1.452 1.533c0-.328-.006-.61-.023-.868h.45l.023.552h.017c.128-.373.443-.61.788-.61.052 0 .093.007.14.012v.477c-.053-.011-.105-.011-.175-.011-.362 0-.619.264-.689.643a1.494 1.494 0 00-.017.235v1.482h-.514v-1.912zm2.316.527c0 .61.35 1.07.852 1.07.49 0 .858-.455.858-1.08 0-.472-.239-1.063-.846-1.063-.6 0-.864.551-.864 1.074zm2.236-.028c0 1.028-.73 1.476-1.407 1.476-.759 0-1.354-.552-1.354-1.43 0-.925.625-1.47 1.401-1.47.811 0 1.36.58 1.36 1.424zm.787-.614c0-.293-.006-.523-.023-.752h.455l.03.46h.01c.14-.26.468-.518.935-.518.39 0 .998.23.998 1.183v1.654h-.514v-1.602c0-.448-.169-.821-.654-.821a.739.739 0 00-.723.752v1.671h-.514v-2.027z" fill="#1A1F71"/></svg>