<?xml version="1.0" encoding="utf-8"?><svg width="40" height="40" fill="none" xmlns="http://www.w3.org/2000/svg" viewBox="0 0 40 40"><path d="M0 0h39.9v21.593l-1.974 3.094L39.9 27.44V40H0V19.644l1.234-1.423L0 16.86V0z" fill="#016FD0"/><path d="M7.746 27.873v-6.28h6.632l.712.93.735-.93h24.076v5.847s-.63.427-1.358.433H25.212l-.802-.99v.99h-2.63v-1.69s-.359.236-1.135.236h-.895v1.454h-3.981l-.71-.95-.722.95H7.746zM0 16.86l1.496-3.496h2.586l.85 1.958v-1.958h3.215l.505 1.415.49-1.415h14.434v.711s.76-.711 2.006-.711l4.683.016.835 1.933v-1.95h2.69l.741 1.11v-1.11h2.716v6.28H34.53l-.71-1.113v1.114h-3.953l-.398-.99h-1.063l-.39.99h-2.682c-1.073 0-1.759-.697-1.759-.697v.697h-4.042l-.803-.99v.99H3.7l-.397-.99h-1.06l-.394.99H0V16.86z" fill="#fff"/><path d="M2.025 14.138L.008 18.84H1.32l.372-.941h2.164l.37.941H5.57l-2.015-4.702h-1.53zm.747 1.095l.66 1.645H2.11l.662-1.646zM5.709 18.84v-4.702l1.866.007 1.086 3.032 1.06-3.039h1.851v4.702H10.4v-3.464L9.156 18.84H8.128l-1.246-3.464v3.464H5.709zM12.374 18.84v-4.702h3.827v1.052h-2.642v.804h2.58v.99h-2.58v.835h2.642v1.021h-3.827zM16.88 14.138v4.702h1.172v-1.67h.494l1.406 1.67h1.433l-1.543-1.732a1.43 1.43 0 001.287-1.444c0-.99-.775-1.526-1.64-1.526h-2.61zm1.172 1.052h1.341c.322 0 .555.252.555.495 0 .312-.303.495-.538.495h-1.358v-.99zM22.805 18.84h-1.198v-4.702h1.198v4.702zM25.644 18.84h-.259c-1.25 0-2.01-.987-2.01-2.331 0-1.378.752-2.37 2.33-2.37h1.297v1.113h-1.344c-.64 0-1.094.501-1.094 1.268 0 .91.518 1.293 1.265 1.293h.309l-.494 1.027zM28.195 14.138l-2.017 4.702h1.313l.373-.941h2.164l.37.941h1.342l-2.015-4.702h-1.53zm.747 1.095l.66 1.645H28.28l.662-1.646zM31.877 18.84v-4.702h1.491l1.904 2.955v-2.955h1.172v4.702h-1.442L33.05 15.81v3.031h-1.173zM8.548 27.069v-4.702h3.826v1.052H9.733v.804h2.58v.99h-2.58v.835h2.641v1.02H8.548zM27.298 27.069v-4.702h3.826v1.052h-2.641v.804h2.567v.99h-2.567v.835h2.641v1.02h-3.826zM12.523 27.069l1.863-2.322-1.907-2.38h1.477l1.136 1.471 1.14-1.471h1.42l-1.883 2.35 1.867 2.352h-1.478l-1.103-1.448-1.076 1.448h-1.456zM17.775 22.368v4.702h1.203v-1.485h1.235c1.044 0 1.836-.556 1.836-1.636 0-.895-.621-1.581-1.684-1.581h-2.59zm1.203 1.063h1.3c.338 0 .579.207.579.541 0 .314-.24.542-.583.542h-1.296V23.43zM22.558 22.367v4.702h1.172v-1.67h.494l1.406 1.67h1.433l-1.543-1.732a1.43 1.43 0 001.287-1.445c0-.99-.775-1.525-1.64-1.525h-2.61zm1.172 1.052h1.34c.322 0 .556.252.556.494 0 .313-.303.495-.538.495H23.73v-.99zM31.668 27.069v-1.02h2.346c.347 0 .498-.19.498-.395 0-.198-.15-.398-.498-.398h-1.06c-.922 0-1.435-.563-1.435-1.408 0-.754.47-1.481 1.84-1.481h2.283l-.494 1.058h-1.975c-.377 0-.493.198-.493.388 0 .195.143.41.432.41h1.11c1.028 0 1.474.584 1.474 1.35 0 .822-.497 1.496-1.53 1.496h-2.498zM35.971 27.069v-1.02h2.347c.348 0 .498-.19.498-.395 0-.198-.15-.398-.498-.398h-1.06c-.922 0-1.436-.563-1.436-1.408 0-.754.47-1.481 1.84-1.481h2.284l-.494 1.058h-1.975c-.377 0-.493.198-.493.388 0 .195.143.41.432.41h1.11c1.028 0 1.474.584 1.474 1.35 0 .822-.497 1.496-1.53 1.496h-2.499z" fill="#016FD0"/></svg>