<?xml version="1.0" encoding="utf-8"?><svg width="24" height="24" fill="none" xmlns="http://www.w3.org/2000/svg" viewBox="0 0 24 24"><g clip-path="url(#dclip0)"><path d="M12 24c6.627 0 12-5.373 12-12S18.627 0 12 0 0 5.373 0 12s5.373 12 12 12z" fill="#FFD93B"/><path d="M24 12c0 6.63-5.374 12-12 12-3.772 0-7.14-1.74-9.341-4.466a11.937 11.937 0 007.534 2.659c6.626 0 12-5.37 12-12 0-2.854-.994-5.475-2.66-7.534A11.987 11.987 0 0124 12z" fill="#F4C534"/><path d="M18.205 14.497c1.054.289-.635 5.896-6.205 5.937-5.57-.041-7.26-5.648-6.205-5.937.843-.416 3.104 1.887 6.205 1.887 3.143 0 5.362-2.303 6.205-1.887z" fill="#3E4347"/><path d="M8.126 12.037a.208.208 0 01-.265.05c-.675-.355-3.39-1.875-3.65-3.29a1.648 1.648 0 011.32-1.92c.645-.12 1.27.155 1.635.66.155-.6.645-1.08 1.29-1.195a1.642 1.642 0 011.914 1.32c.26 1.415-1.74 3.8-2.244 4.375z" fill="#E24B4B"/><path d="M8.41 11.702c-.114.14-.215.255-.284.335a.208.208 0 01-.265.05c-.675-.355-3.39-1.875-3.65-3.29-.15-.805.31-1.58 1.055-1.845-.38.37-.575.92-.47 1.48.255 1.395 2.89 2.89 3.615 3.27z" fill="#D03F3F"/><path opacity=".2" d="M9.625 7.472c-.132-.334-.42-.534-.646-.445-.225.088-.3.43-.17.765.132.334.42.533.646.445.225-.088.3-.431.17-.765z" fill="#fff"/><path d="M15.598 12.037c.065.08.175.1.264.05.676-.355 3.39-1.875 3.65-3.29a1.648 1.648 0 00-1.32-1.92 1.643 1.643 0 00-1.634.66 1.625 1.625 0 00-1.29-1.195 1.642 1.642 0 00-1.915 1.32c-.26 1.415 1.74 3.8 2.245 4.375z" fill="#E24B4B"/><path d="M15.313 11.702c.114.14.215.255.285.335.065.08.175.1.264.05.676-.355 3.39-1.875 3.65-3.29.15-.805-.309-1.58-1.055-1.845.38.37.576.92.47 1.48-.254 1.395-2.89 2.89-3.614 3.27z" fill="#D03F3F"/><path opacity=".2" d="M14.742 7.028c-.225-.089-.514.11-.645.445-.131.334-.055.677.17.765.225.088.514-.11.645-.445.131-.334.055-.677-.17-.765z" fill="#fff"/><path d="M12 20.434a7.11 7.11 0 002.799-.57 2.942 2.942 0 00-.928-1.335c-.342-.282-.81-.332-1.232-.196a2.713 2.713 0 01-.818.124c-.235 0-.452-.03-.652-.077a1.326 1.326 0 00-1.265.354 2.935 2.935 0 00-.702 1.132c.795.343 1.723.56 2.798.568z" fill="#E24B4B"/></g><defs><clipPath id="dclip0"><path d="M0 0h24v24H0V0z" fill="#fff"/></clipPath></defs></svg>