<?xml version="1.0" encoding="utf-8"?><svg width="61" height="60" fill="none" xmlns="http://www.w3.org/2000/svg" viewBox="0 0 61 60"><path fill-rule="evenodd" clip-rule="evenodd" d="M6.658 14.436L.294 8.072a1 1 0 010-1.414L6.658.294a1 1 0 011.414 1.414L3.415 6.365h38.342c3.07-.1 7.617.832 11.42 3.956 3.849 3.162 6.825 8.481 6.825 16.928 0 9.988-4.194 15.145-8.525 17.744-2.134 1.28-4.26 1.916-5.846 2.234-.795.159-1.46.24-1.932.28a12.272 12.272 0 01-.711.04h-.064s-.002 0-.002-1v-1h.027a5.02 5.02 0 00.114-.003c.104-.004.261-.013.465-.03.408-.035.998-.106 1.71-.248 1.429-.286 3.323-.856 5.21-1.988 3.708-2.225 7.554-6.718 7.554-16.029 0-7.928-2.767-12.648-6.095-15.383-3.37-2.768-7.426-3.592-10.1-3.501H3.416l4.657 4.657a1 1 0 11-1.414 1.414zM23.626 21.4h-5.425l-1.783 9.359h8.634L23.626 21.4zm-14.105 0h6.844l-1.936 9.359H4.168L9.52 21.4zm15.925 0l1.588 9.359h11.02L32.682 21.4h-7.236zm15.622 9.86a1.005 1.005 0 00-.263-.298l-6.469-10.877a1.125 1.125 0 00-.028-.044 1 1 0 00-1-.98H8.892a1 1 0 00-1 .97l-6.454 10.9a.999.999 0 00-.437.827V59a.997.997 0 001 1h38.221a1 1 0 00.978-1V31.758a.995.995 0 00-.133-.497zm-37.77 26.4V33.097h10.337v6.018a1 1 0 001 1h11.782a1 1 0 00.997-.92l.001-.013.001-.016.001-.052V33.097h11.486V57.66H3.298zm12.634-19.884v-4.679h9.188v4.679h-9.188z" fill="url(#lpaint0_linear)"/><defs><linearGradient id="lpaint0_linear" x1=".001" y1="59.999" x2="62.908" y2="56.778" gradientUnits="userSpaceOnUse"><stop stop-color="#3591D0"/><stop offset="1" stop-color="#26B8DC"/></linearGradient></defs></svg>