<?xml version="1.0" encoding="utf-8"?><svg width="60" height="60" fill="none" xmlns="http://www.w3.org/2000/svg" viewBox="0 0 60 60"><path d="M1 .001a1 1 0 00-1 1v48a1 1 0 001 1h27v-2h-4a1 1 0 01-1-1H4a1 1 0 01-1-1v-42a1 1 0 011-1h36a1 1 0 011 1v9h3v-12a1 1 0 00-1-1H1z" fill="url(#epaint0_linear)"/><path d="M10 8.001a1 1 0 011-1h22a1 1 0 110 2H11a1 1 0 01-1-1z" fill="url(#epaint1_linear)"/><path d="M10 18.001a1 1 0 011-1h19a1 1 0 010 2H11a1 1 0 01-1-1z" fill="url(#epaint2_linear)"/><path d="M10 28.001a1 1 0 011-1h13a1 1 0 010 2H11a1 1 0 01-1-1z" fill="url(#epaint3_linear)"/><path d="M10 13.001a1 1 0 011-1h22a1 1 0 010 2H11a1 1 0 01-1-1z" fill="url(#epaint4_linear)"/><path d="M10 23.001a1 1 0 011-1h15a1 1 0 010 2H11a1 1 0 01-1-1z" fill="url(#epaint5_linear)"/><path d="M10 33.001a1 1 0 011-1h12a1 1 0 010 2H11a1 1 0 01-1-1z" fill="url(#epaint6_linear)"/><path d="M10 43.001a1 1 0 011-1h8a1 1 0 010 2h-8a1 1 0 01-1-1z" fill="url(#epaint7_linear)"/><path d="M17 48.501a1.5 1.5 0 011.5-1.5h10a1.5 1.5 0 010 3h-10a1.5 1.5 0 01-1.5-1.5z" fill="url(#epaint8_linear)"/><path d="M42.5 2.001a1.5 1.5 0 011.5 1.5v10a1.5 1.5 0 11-3 0v-10a1.5 1.5 0 011.5-1.5z" fill="url(#epaint9_linear)"/><path d="M38 42.001a1 1 0 011 1v16a1 1 0 11-2 0v-16a1 1 0 011-1z" fill="url(#epaint10_linear)"/><path d="M44.432 52.567a1 1 0 010 1.414l-5.718 5.718a1 1 0 01-1.414-1.414l5.718-5.718a1 1 0 011.414 0z" fill="url(#epaint11_linear)"/><path d="M43.3 52.3a1 1 0 011.413 0l5.992 5.993a1 1 0 01-1.414 1.414L43.3 53.715a1 1 0 010-1.415z" fill="url(#epaint12_linear)"/><path d="M50 42.001a1 1 0 011 1v16a1 1 0 11-2 0v-16a1 1 0 011-1z" fill="url(#epaint13_linear)"/><path fill-rule="evenodd" clip-rule="evenodd" d="M43.5 45.001c7.456 0 13.5-6.044 13.5-13.5s-6.044-13.5-13.5-13.5S30 24.045 30 31.501s6.044 13.5 13.5 13.5zm0-2c6.351 0 11.5-5.148 11.5-11.5 0-6.35-5.149-11.5-11.5-11.5S32 25.151 32 31.501c0 6.352 5.149 11.5 11.5 11.5z" fill="url(#epaint14_linear)"/><path d="M43.044 26.022a.5.5 0 01.912 0l1.226 2.74a.5.5 0 00.403.293l2.985.319a.5.5 0 01.282.868l-2.227 2.013a.5.5 0 00-.154.474l.619 2.937a.5.5 0 01-.739.537l-2.602-1.497a.5.5 0 00-.498 0l-2.602 1.497a.5.5 0 01-.739-.537l.62-2.937a.5.5 0 00-.155-.474l-2.227-2.013a.5.5 0 01.282-.868l2.985-.319a.5.5 0 00.403-.293l1.226-2.74z" fill="url(#epaint15_linear)"/><defs><linearGradient id="epaint0_linear" x1="0" y1="60.001" x2="59.776" y2="57.095" gradientUnits="userSpaceOnUse"><stop stop-color="#3591D0"/><stop offset="1" stop-color="#26B8DC"/></linearGradient><linearGradient id="epaint1_linear" x1="0" y1="60.001" x2="59.776" y2="57.095" gradientUnits="userSpaceOnUse"><stop stop-color="#3591D0"/><stop offset="1" stop-color="#26B8DC"/></linearGradient><linearGradient id="epaint2_linear" x1="0" y1="60.001" x2="59.776" y2="57.095" gradientUnits="userSpaceOnUse"><stop stop-color="#3591D0"/><stop offset="1" stop-color="#26B8DC"/></linearGradient><linearGradient id="epaint3_linear" x1="0" y1="60.001" x2="59.776" y2="57.095" gradientUnits="userSpaceOnUse"><stop stop-color="#3591D0"/><stop offset="1" stop-color="#26B8DC"/></linearGradient><linearGradient id="epaint4_linear" x1="0" y1="60.001" x2="59.776" y2="57.095" gradientUnits="userSpaceOnUse"><stop stop-color="#3591D0"/><stop offset="1" stop-color="#26B8DC"/></linearGradient><linearGradient id="epaint5_linear" x1="0" y1="60.001" x2="59.776" y2="57.095" gradientUnits="userSpaceOnUse"><stop stop-color="#3591D0"/><stop offset="1" stop-color="#26B8DC"/></linearGradient><linearGradient id="epaint6_linear" x1="0" y1="60.001" x2="59.776" y2="57.095" gradientUnits="userSpaceOnUse"><stop stop-color="#3591D0"/><stop offset="1" stop-color="#26B8DC"/></linearGradient><linearGradient id="epaint7_linear" x1="0" y1="60.001" x2="59.776" y2="57.095" gradientUnits="userSpaceOnUse"><stop stop-color="#3591D0"/><stop offset="1" stop-color="#26B8DC"/></linearGradient><linearGradient id="epaint8_linear" x1="0" y1="60.001" x2="59.776" y2="57.095" gradientUnits="userSpaceOnUse"><stop stop-color="#3591D0"/><stop offset="1" stop-color="#26B8DC"/></linearGradient><linearGradient id="epaint9_linear" x1="0" y1="60.001" x2="59.776" y2="57.095" gradientUnits="userSpaceOnUse"><stop stop-color="#3591D0"/><stop offset="1" stop-color="#26B8DC"/></linearGradient><linearGradient id="epaint10_linear" x1="0" y1="60.001" x2="59.776" y2="57.095" gradientUnits="userSpaceOnUse"><stop stop-color="#3591D0"/><stop offset="1" stop-color="#26B8DC"/></linearGradient><linearGradient id="epaint11_linear" x1="0" y1="60.001" x2="59.776" y2="57.095" gradientUnits="userSpaceOnUse"><stop stop-color="#3591D0"/><stop offset="1" stop-color="#26B8DC"/></linearGradient><linearGradient id="epaint12_linear" x1="0" y1="60.001" x2="59.776" y2="57.095" gradientUnits="userSpaceOnUse"><stop stop-color="#3591D0"/><stop offset="1" stop-color="#26B8DC"/></linearGradient><linearGradient id="epaint13_linear" x1="0" y1="60.001" x2="59.776" y2="57.095" gradientUnits="userSpaceOnUse"><stop stop-color="#3591D0"/><stop offset="1" stop-color="#26B8DC"/></linearGradient><linearGradient id="epaint14_linear" x1="0" y1="60.001" x2="59.776" y2="57.095" gradientUnits="userSpaceOnUse"><stop stop-color="#3591D0"/><stop offset="1" stop-color="#26B8DC"/></linearGradient><linearGradient id="epaint15_linear" x1="0" y1="60.001" x2="59.776" y2="57.095" gradientUnits="userSpaceOnUse"><stop stop-color="#3591D0"/><stop offset="1" stop-color="#26B8DC"/></linearGradient></defs></svg>