<?xml version="1.0" encoding="utf-8"?><svg width="70" height="70" fill="none" xmlns="http://www.w3.org/2000/svg" viewBox="0 0 70 70"><mask id="ja" fill="#fff"><path fill-rule="evenodd" clip-rule="evenodd" d="M35 70c19.33 0 35-15.67 35-35S54.33 0 35 0 0 15.67 0 35s15.67 35 35 35zm-8.539-20.17l26.831-13.943a1 1 0 000-1.774L26.462 20.17a1 1 0 00-1.462.887v27.884a1 1 0 001.461.887z"/></mask><path fill-rule="evenodd" clip-rule="evenodd" d="M35 70c19.33 0 35-15.67 35-35S54.33 0 35 0 0 15.67 0 35s15.67 35 35 35zm-8.539-20.17l26.831-13.943a1 1 0 000-1.774L26.462 20.17a1 1 0 00-1.462.887v27.884a1 1 0 001.461.887z" fill="#fff"/><path d="M53.292 35.887l1.383 2.662-1.383-2.662zM26.462 49.83l-1.384-2.662 1.383 2.662zm26.83-15.716l-1.383 2.662 1.383-2.662zM26.462 20.17l1.382-2.662-1.383 2.662zM25 21.058h3-3zm0 27.884h-3 3zM67 35c0 17.673-14.327 32-32 32v6c20.987 0 38-17.013 38-38h-6zM35 3c17.673 0 32 14.327 32 32h6C73 14.013 55.987-3 35-3v6zM3 35C3 17.327 17.327 3 35 3v-6C14.013-3-3 14.013-3 35h6zm32 32C17.327 67 3 52.673 3 35h-6c0 20.987 17.013 38 38 38v-6zm16.909-33.775L25.078 47.167l2.766 5.324L54.675 38.55l-2.766-5.324zm0 3.55c-1.437-.747-1.437-2.803 0-3.55l2.767 5.324c2.874-1.493 2.874-5.605 0-7.098l-2.767 5.324zM25.078 22.833l26.831 13.942 2.767-5.324-26.832-13.942-2.766 5.324zM28 21.058c0 1.5-1.59 2.467-2.922 1.775l2.766-5.324c-2.662-1.384-5.844.548-5.844 3.55h6zm0 27.884V21.058h-6v27.884h6zm-2.922-1.775c1.331-.692 2.922.274 2.922 1.775h-6c0 3 3.182 4.933 5.844 3.55l-2.766-5.325z" fill="#fff" mask="url(#ja)"/></svg>