<?xml version="1.0" encoding="utf-8"?><svg width="208" height="50" fill="none" xmlns="http://www.w3.org/2000/svg" viewBox="0 0 208 50"><path d="M.4 23.1h55.9c0-.9-.1-1.9-.3-2.8H.7c-.2 1-.2 1.9-.3 2.8z" fill="url(#npaint0_linear)"/><path d="M28.4 50c14.3 0 26.2-10 27.8-22.8H.6C2.2 40 14 50 28.4 50z" fill="url(#npaint1_linear)"/><path d="M48.9 6.5h-41c-.7.7-1.3 1.4-1.9 2.1h44.8c-.6-.7-1.3-1.4-1.9-2.1z" fill="url(#npaint2_linear)"/><path d="M51.9 10.2H4.8c-.3.5-.7 1-1 1.5h49.1c-.3-.5-.6-1-1-1.5z" fill="url(#npaint3_linear)"/><path d="M38.6 0H18.1c-1 .4-2 .8-2.9 1.2h26.4l-3-1.2z" fill="url(#npaint4_linear)"/><path d="M.9 19h54.8l-.6-2.4H1.6c-.3.8-.5 1.6-.7 2.4z" fill="url(#npaint5_linear)"/><path d="M54.6 15.2c-.3-.7-.6-1.4-.9-2H3c-.3.7-.6 1.3-.9 2h52.5z" fill="url(#npaint6_linear)"/><path d="M.6 26.6h55.6c.1-.8.1-1.7.1-2.6H.4c0 .9.1 1.8.2 2.6z" fill="url(#npaint7_linear)"/><path d="M44.4 2.9H12.3c-.9.6-1.8 1.2-2.6 1.9h37.4c-.9-.7-1.7-1.3-2.7-1.9z" fill="url(#npaint8_linear)"/><path d="M66 37.3l4.4-24.9c.5-2.7 2.1-4.1 4.9-4.1h5.6c2.7 0 4.1 1.7 3.6 4.4L80 37.6c-.5 2.7-2.1 4.1-4.8 4.1h-5.6c-2.7 0-4.1-1.7-3.6-4.4zm9 .8c.6 0 1.1-.3 1.3-1.1l4.3-24.3c.1-.5 0-.8-.7-.8h-4.6c-.6 0-1.1.3-1.3 1.1l-4.3 24.3c-.1.5 0 .8.7.8H75zM92.1 12h-4.9l.6-3.6h13.5l-.6 3.6h-4.9l-5.2 29.4h-3.8L92.1 12zM107.8 8.5h6.1l-.9 33h-3.8l.2-7.5h-6.3l-2.4 7.5H97l10.8-33zm1.8 21.8l.6-18.3-5.8 18.3h5.2zM121.8 8.5h3.8l-2.8 15.8 9.5-15.8h4.1l-10 16.7 4.1 16.3h-3.7l-4.1-16.2-2.9 16.2H116l5.8-33zM133.6 37.3l5.1-28.8h3.8l-5.1 28.8c-.1.5 0 .8.7.8h4.5c.6 0 1.1-.3 1.3-1.1l5-28.5h3.8l-5.1 29.1c-.5 2.7-2.1 4.1-4.8 4.1h-5.5c-2.8 0-4.1-1.7-3.7-4.4zM156.5 38.1h4.4c.6 0 1.1-.3 1.3-1.1l4.4-24.9h-5.5l.6-3.6h9.2l-5.1 29.1c-.5 2.7-2.1 4.1-4.8 4.1h-5.1l.6-3.6zM170 37.3l4.4-24.9c.5-2.7 2.1-4.1 4.9-4.1h5.6c2.7 0 4.1 1.7 3.6 4.4L184 37.6c-.5 2.7-2.1 4.1-4.8 4.1h-5.6c-2.7 0-4.1-1.7-3.6-4.4zm9.1.8c.6 0 1.1-.3 1.3-1.1l4.3-24.3c.1-.5 0-.8-.7-.8h-4.6c-.6 0-1.1.3-1.3 1.1l-4.3 24.3c-.1.5 0 .8.7.8h4.6zM195.2 8.5l1.6 15.1 6.9-15.1h3.9l-9.9 21.2-2.1 11.8h-3.8l2.1-11.8-2.4-21.2h3.7z" fill="#D14B5C"/><defs><linearGradient id="npaint0_linear" x1="28.354" y1="-.431" x2="28.354" y2="49.9" gradientUnits="userSpaceOnUse"><stop stop-color="#F20F86"/><stop offset=".252" stop-color="#F44275"/><stop offset=".824" stop-color="#FAC24A"/><stop offset="1" stop-color="#FCEA3D"/></linearGradient><linearGradient id="npaint1_linear" x1="28.353" y1="-.431" x2="28.353" y2="49.9" gradientUnits="userSpaceOnUse"><stop stop-color="#F20F86"/><stop offset=".252" stop-color="#F44275"/><stop offset=".824" stop-color="#FAC24A"/><stop offset="1" stop-color="#FCEA3D"/></linearGradient><linearGradient id="npaint2_linear" x1="28.354" y1="-.431" x2="28.354" y2="49.9" gradientUnits="userSpaceOnUse"><stop stop-color="#F20F86"/><stop offset=".252" stop-color="#F44275"/><stop offset=".824" stop-color="#FAC24A"/><stop offset="1" stop-color="#FCEA3D"/></linearGradient><linearGradient id="npaint3_linear" x1="28.354" y1="-.431" x2="28.354" y2="49.9" gradientUnits="userSpaceOnUse"><stop stop-color="#F20F86"/><stop offset=".252" stop-color="#F44275"/><stop offset=".824" stop-color="#FAC24A"/><stop offset="1" stop-color="#FCEA3D"/></linearGradient><linearGradient id="npaint4_linear" x1="28.354" y1="-.431" x2="28.354" y2="49.9" gradientUnits="userSpaceOnUse"><stop stop-color="#F20F86"/><stop offset=".252" stop-color="#F44275"/><stop offset=".824" stop-color="#FAC24A"/><stop offset="1" stop-color="#FCEA3D"/></linearGradient><linearGradient id="npaint5_linear" x1="28.354" y1="-.431" x2="28.354" y2="49.9" gradientUnits="userSpaceOnUse"><stop stop-color="#F20F86"/><stop offset=".252" stop-color="#F44275"/><stop offset=".824" stop-color="#FAC24A"/><stop offset="1" stop-color="#FCEA3D"/></linearGradient><linearGradient id="npaint6_linear" x1="28.354" y1="-.431" x2="28.354" y2="49.9" gradientUnits="userSpaceOnUse"><stop stop-color="#F20F86"/><stop offset=".252" stop-color="#F44275"/><stop offset=".824" stop-color="#FAC24A"/><stop offset="1" stop-color="#FCEA3D"/></linearGradient><linearGradient id="npaint7_linear" x1="28.354" y1="-.432" x2="28.354" y2="49.9" gradientUnits="userSpaceOnUse"><stop stop-color="#F20F86"/><stop offset=".252" stop-color="#F44275"/><stop offset=".824" stop-color="#FAC24A"/><stop offset="1" stop-color="#FCEA3D"/></linearGradient><linearGradient id="npaint8_linear" x1="28.353" y1="-.431" x2="28.353" y2="49.9" gradientUnits="userSpaceOnUse"><stop stop-color="#F20F86"/><stop offset=".252" stop-color="#F44275"/><stop offset=".824" stop-color="#FAC24A"/><stop offset="1" stop-color="#FCEA3D"/></linearGradient></defs></svg>