<?xml version="1.0" encoding="utf-8"?><svg width="52" height="40" fill="none" xmlns="http://www.w3.org/2000/svg" viewBox="0 0 52 40"><path d="M9.489 39.675v-2.638a1.55 1.55 0 00-.454-1.208 1.583 1.583 0 00-1.217-.462 1.659 1.659 0 00-1.494.747 1.553 1.553 0 00-.598-.564 1.575 1.575 0 00-.806-.183 1.418 1.418 0 00-1.244.624v-.518H2.75v4.202h.933v-2.312a.974.974 0 01.255-.8.995.995 0 01.785-.317c.614 0 .925.396.925 1.108v2.338h.933v-2.33a.979.979 0 01.256-.798 1.001 1.001 0 01.784-.318c.631 0 .934.396.934 1.108v2.338l.933-.017zm13.809-4.202h-1.52v-1.275h-.934v1.275H20v.835h.862v1.934c0 .976.382 1.556 1.476 1.556.408.001.809-.111 1.155-.325l-.266-.783a1.72 1.72 0 01-.818.238c-.445 0-.613-.282-.613-.704v-1.916h1.51l-.008-.835zm7.884-.106a1.264 1.264 0 00-1.12.616v-.51h-.915v4.202h.924v-2.356c0-.695.302-1.082.889-1.082.198-.002.394.034.578.106l.284-.88a1.996 1.996 0 00-.658-.114l.018.018zm-11.92.44a3.205 3.205 0 00-1.733-.44c-1.076 0-1.778.51-1.778 1.345 0 .686.516 1.108 1.467 1.24l.444.061c.507.07.747.202.747.44 0 .325-.338.51-.969.51a2.28 2.28 0 01-1.413-.44l-.445.712a3.091 3.091 0 001.84.545c1.227 0 1.938-.571 1.938-1.371s-.56-1.125-1.485-1.257l-.444-.062c-.4-.053-.72-.132-.72-.413 0-.281.302-.492.809-.492.468.005.927.13 1.333.36l.41-.738zm24.76-.44a1.264 1.264 0 00-1.12.616v-.51h-.915v4.202h.924v-2.356c0-.695.302-1.082.889-1.082.198-.002.394.034.578.106l.284-.88a1.996 1.996 0 00-.658-.114l.018.018zm-11.91 2.198a2.102 2.102 0 00.642 1.594 2.148 2.148 0 001.624.604c.555.028 1.1-.151 1.529-.501l-.445-.739a1.88 1.88 0 01-1.11.378 1.37 1.37 0 01-.894-.43 1.34 1.34 0 010-1.83 1.37 1.37 0 01.893-.43 1.88 1.88 0 011.111.378l.445-.738a2.239 2.239 0 00-1.53-.502 2.168 2.168 0 00-1.623.604 2.121 2.121 0 00-.643 1.594v.018zm8.657 0v-2.092h-.925v.51a1.61 1.61 0 00-1.333-.616c-.59 0-1.155.232-1.571.644-.417.412-.651.971-.651 1.554 0 .583.234 1.142.65 1.554.417.412.983.644 1.572.644a1.629 1.629 0 001.333-.616v.51h.925v-2.092zm-3.44 0c.015-.247.102-.485.252-.684a1.298 1.298 0 011.963-.115 1.266 1.266 0 01.248 1.372 1.274 1.274 0 01-.47.56c-.209.137-.454.21-.704.212a1.29 1.29 0 01-.942-.394 1.26 1.26 0 01-.347-.951zm-11.156-2.198a2.234 2.234 0 00-1.562.666c-.41.417-.637.98-.629 1.563.009.583.25 1.138.673 1.545.423.406.991.63 1.58.622A2.602 2.602 0 0028 39.19l-.445-.677c-.35.279-.785.433-1.235.44a1.186 1.186 0 01-.847-.26 1.161 1.161 0 01-.424-.769h3.155v-.351c0-1.319-.826-2.198-2.017-2.198l-.014-.009zm0 .818a1.061 1.061 0 01.987.622c.056.126.086.26.089.397h-2.222c.016-.282.143-.546.354-.737a1.1 1.1 0 01.774-.282h.018zm23.16 1.389v-3.79h-.889v2.199a1.61 1.61 0 00-1.333-.616c-.59 0-1.154.232-1.571.644-.417.412-.651.971-.651 1.554 0 .583.234 1.142.65 1.554.417.412.983.644 1.572.644a1.629 1.629 0 001.333-.616v.51h.89v-2.083zm1.543 1.49a.447.447 0 01.306.118.406.406 0 01-.138.677.423.423 0 01-.168.036.45.45 0 01-.4-.255.41.41 0 01.093-.458.445.445 0 01.32-.118h-.014zm0 .743a.319.319 0 00.23-.097.324.324 0 000-.44.33.33 0 00-.23-.096.338.338 0 00-.236.096.323.323 0 000 .44c.03.03.067.054.107.07.044.02.093.028.142.027h-.014zm.026-.523a.18.18 0 01.116.035.11.11 0 01.04.092.104.104 0 01-.031.08.156.156 0 01-.094.039l.13.145h-.103l-.12-.145h-.04v.145h-.084v-.387l.186-.004zm-.098.074v.106h.098a.095.095 0 00.053 0 .043.043 0 000-.04.043.043 0 000-.04.093.093 0 00-.053 0l-.098-.026zm-4.889-1.784c.015-.248.103-.485.252-.684a1.284 1.284 0 011.325-.478c.244.057.466.183.638.363a1.264 1.264 0 01.249 1.372 1.272 1.272 0 01-.47.56c-.21.137-.454.21-.705.212a1.287 1.287 0 01-.941-.394 1.26 1.26 0 01-.347-.951zm-31.213 0v-2.101h-.924v.51a1.61 1.61 0 00-1.334-.616c-.589 0-1.154.232-1.57.644-.418.412-.652.971-.652 1.554 0 .583.234 1.142.651 1.554.417.412.982.644 1.571.644a1.63 1.63 0 001.334-.616v.51h.924v-2.083zm-3.44 0c.015-.248.102-.485.252-.684a1.298 1.298 0 011.963-.115 1.265 1.265 0 01.249 1.372 1.273 1.273 0 01-.471.56c-.209.137-.453.21-.704.212a1.287 1.287 0 01-.948-.39 1.26 1.26 0 01-.35-.955h.01z" fill="#000"/><path d="M32.956 3.45h-14v24.884h14V3.451z" fill="#FF5F00"/><path d="M19.845 15.895a15.655 15.655 0 011.605-6.919 15.832 15.832 0 014.506-5.525 16.098 16.098 0 00-8.18-3.292c-2.985-.317-6 .203-8.7 1.501a15.94 15.94 0 00-6.57 5.837A15.696 15.696 0 00.07 15.893c0 2.969.845 5.878 2.437 8.395a15.94 15.94 0 006.57 5.837 16.156 16.156 0 008.7 1.502 16.098 16.098 0 008.18-3.293 15.832 15.832 0 01-4.505-5.523 15.654 15.654 0 01-1.607-6.916z" fill="#EB001B"/><path d="M51.844 15.895c0 2.969-.844 5.878-2.437 8.395a15.94 15.94 0 01-6.57 5.838 16.156 16.156 0 01-8.701 1.5 16.097 16.097 0 01-8.18-3.294 15.859 15.859 0 004.504-5.525 15.681 15.681 0 001.61-6.917c0-2.396-.551-4.76-1.61-6.916a15.858 15.858 0 00-4.504-5.525 16.097 16.097 0 018.18-3.294c2.985-.317 6 .203 8.7 1.5a15.94 15.94 0 016.57 5.838 15.697 15.697 0 012.438 8.395v.005zM50.316 25.697v-.51h.209v-.106h-.53v.106h.227v.51h.094zm1.026 0v-.616h-.16l-.186.44-.187-.44h-.142v.616h.115v-.462l.174.4h.12l.173-.4v.466l.093-.004z" fill="#F79E1B"/></svg>