<?xml version="1.0" encoding="utf-8"?><svg width="52" height="40" fill="none" xmlns="http://www.w3.org/2000/svg" viewBox="0 0 52 40"><path d="M15.729 39.666v-2.637a1.544 1.544 0 00-.452-1.206 1.581 1.581 0 00-1.215-.46 1.659 1.659 0 00-1.493.747 1.552 1.552 0 00-.598-.565 1.575 1.575 0 00-.806-.182 1.418 1.418 0 00-1.245.624v-.519h-.924v4.198h.933V37.34a.97.97 0 01.252-.803.992.992 0 01.788-.314c.613 0 .924.396.924 1.108v2.334h.934V37.34a.978.978 0 01.256-.8 1 1 0 01.784-.317c.63 0 .933.396.933 1.108v2.334h.929zm5.2-2.097v-2.097h-.933v.51a1.605 1.605 0 00-1.334-.615c-.59 0-1.154.232-1.571.644-.417.412-.651.97-.651 1.554 0 .583.234 1.142.65 1.554.418.412.983.644 1.572.644a1.624 1.624 0 001.334-.616v.51h.924l.009-2.088zm-3.436 0c.015-.247.103-.485.252-.684a1.298 1.298 0 011.963-.115 1.266 1.266 0 01.249 1.373 1.274 1.274 0 01-.47.56c-.21.136-.454.21-.705.211a1.283 1.283 0 01-.95-.389 1.254 1.254 0 01-.348-.956h.01zm23.187-2.198c.304 0 .606.056.889.167.27.107.516.266.724.466.206.2.37.437.48.7a2.306 2.306 0 010 1.758c-.11.262-.274.5-.48.698-.208.201-.454.36-.724.466a2.54 2.54 0 01-1.822 0 2.142 2.142 0 01-1.195-1.165 2.31 2.31 0 010-1.758 2.143 2.143 0 011.195-1.165c.293-.12.607-.181.924-.18l.01.013zm0 .88c-.181-.003-.36.03-.529.096a1.252 1.252 0 00-.422.277 1.288 1.288 0 00-.28.44 1.51 1.51 0 000 1.09c.062.164.157.313.28.44.12.12.264.214.422.276a1.46 1.46 0 001.053 0c.166-.06.318-.155.445-.277.123-.126.218-.275.28-.44a1.51 1.51 0 000-1.09 1.272 1.272 0 00-.28-.439 1.273 1.273 0 00-.444-.277 1.39 1.39 0 00-.534-.123l.01.027zm-14.729 1.318c0-1.319-.826-2.198-2.013-2.198a2.234 2.234 0 00-1.562.666c-.411.418-.638.98-.63 1.563.009.583.251 1.139.674 1.545.422.406.99.63 1.58.622a2.596 2.596 0 001.738-.589l-.445-.677a2.036 2.036 0 01-1.235.44 1.186 1.186 0 01-.847-.26 1.162 1.162 0 01-.424-.769h3.15c.014-.11.014-.22.014-.343zm-3.16-.369c.017-.28.143-.54.351-.73a1.1 1.1 0 01.765-.285 1.064 1.064 0 01.751.29 1.04 1.04 0 01.324.73l-2.19-.005zm7.049-.66a2.757 2.757 0 00-1.333-.36c-.507 0-.81.185-.81.492 0 .308.32.36.72.414l.445.061c.925.132 1.485.519 1.485 1.257 0 .739-.711 1.372-1.934 1.372a3.087 3.087 0 01-1.835-.545l.444-.712c.408.299.906.454 1.414.44.63 0 .968-.185.968-.51 0-.238-.24-.37-.746-.44l-.445-.062c-.95-.132-1.466-.554-1.466-1.24 0-.834.693-1.344 1.777-1.344a3.2 3.2 0 011.73.44l-.414.738zm4.445-.237h-1.507v1.895c0 .44.15.703.613.703.289-.01.57-.091.818-.237l.267.782a2.187 2.187 0 01-1.156.325c-1.093 0-1.476-.58-1.476-1.556v-1.912h-.862v-.835h.863v-1.275h.933v1.275h1.507v.835zm3.195-.94c.224 0 .447.04.658.114l-.285.879a1.518 1.518 0 00-.577-.105c-.605 0-.89.386-.89 1.08v2.352h-.924v-4.197h.916v.51c.113-.193.277-.352.474-.46.197-.109.42-.162.646-.156l-.018-.017zm6.391 3.692a.45.45 0 01.307.119.405.405 0 010 .589.445.445 0 01-.138.087.423.423 0 01-.169.036.45.45 0 01-.4-.255.408.408 0 01.231-.545.449.449 0 01.147-.031h.022zm0 .743a.32.32 0 00.231-.097.325.325 0 00-.36-.527.325.325 0 00-.106.07.323.323 0 000 .44.33.33 0 00.235.096v.018zm.027-.523a.18.18 0 01.115.035.112.112 0 01.04.092.104.104 0 01-.03.08.157.157 0 01-.094.039l.129.145h-.102l-.12-.145h-.04v.145h-.085v-.404l.187.013zm-.098.074v.106h.098a.095.095 0 00.053 0 .044.044 0 000-.04.044.044 0 000-.04.095.095 0 00-.053 0l-.098-.026z" fill="#000"/><path d="M32.951 3.442h-14v24.883h14V3.442z" fill="#7673C0"/><path d="M19.84 15.887a15.654 15.654 0 011.605-6.919 15.833 15.833 0 014.506-5.525 16.097 16.097 0 00-8.18-3.292c-2.985-.317-6 .203-8.7 1.501A15.94 15.94 0 002.502 7.49a15.696 15.696 0 00-2.437 8.395c0 2.969.844 5.878 2.437 8.395a15.94 15.94 0 006.57 5.837 16.155 16.155 0 008.7 1.502 16.097 16.097 0 008.18-3.293 15.832 15.832 0 01-4.506-5.523 15.654 15.654 0 01-1.606-6.916z" fill="#EB001B"/><path d="M50.311 25.688v-.492h.21v-.106h-.53v.106h.21v.51l.11-.018zm1.027 0v-.615h-.16l-.187.44-.187-.44h-.164v.615h.116v-.461l.173.4h.12l.173-.4v.465l.116-.004zM51.836 15.886c-.001 2.968-.846 5.877-2.439 8.393a15.941 15.941 0 01-6.568 5.836 16.155 16.155 0 01-8.699 1.501 16.097 16.097 0 01-8.179-3.29 15.86 15.86 0 004.505-5.526 15.681 15.681 0 001.609-6.916c0-2.397-.55-4.762-1.61-6.917a15.86 15.86 0 00-4.504-5.525 16.097 16.097 0 018.18-3.294c2.986-.317 6 .203 8.701 1.5a15.941 15.941 0 016.57 5.838 15.697 15.697 0 012.438 8.395l-.004.005z" fill="#00A1DF"/></svg>