<?xml version="1.0" encoding="utf-8"?><svg viewBox="0 0 512 512" xmlns="http://www.w3.org/2000/svg" xmlns:xlink="http://www.w3.org/1999/xlink"><style>:root>svg{display:none}:root>svg:target{display:block}</style><svg fill="none" viewBox="0 0 40 40" id="as" xmlns="http://www.w3.org/2000/svg"><path d="M0 0h39.9v21.593l-1.974 3.094L39.9 27.44V40H0V19.644l1.234-1.423L0 16.86V0z" fill="#016FD0"/><path d="M7.746 27.873v-6.28h6.632l.712.93.735-.93h24.076v5.847s-.63.427-1.358.433H25.212l-.802-.99v.99h-2.63v-1.69s-.359.236-1.135.236h-.895v1.454h-3.981l-.71-.95-.722.95H7.746zM0 16.86l1.496-3.496h2.586l.85 1.958v-1.958h3.215l.505 1.415.49-1.415h14.434v.711s.76-.711 2.006-.711l4.683.016.835 1.933v-1.95h2.69l.741 1.11v-1.11h2.716v6.28H34.53l-.71-1.113v1.114h-3.953l-.398-.99h-1.063l-.39.99h-2.682c-1.073 0-1.759-.697-1.759-.697v.697h-4.042l-.803-.99v.99H3.7l-.397-.99h-1.06l-.394.99H0V16.86z" fill="#fff"/><path d="M2.025 14.138L.008 18.84H1.32l.372-.941h2.164l.37.941H5.57l-2.015-4.702h-1.53zm.747 1.095l.66 1.645H2.11l.662-1.646zM5.709 18.84v-4.702l1.866.007 1.086 3.032 1.06-3.039h1.851v4.702H10.4v-3.464L9.156 18.84H8.128l-1.246-3.464v3.464H5.709zM12.374 18.84v-4.702h3.827v1.052h-2.642v.804h2.58v.99h-2.58v.835h2.642v1.021h-3.827zM16.88 14.138v4.702h1.172v-1.67h.494l1.406 1.67h1.433l-1.543-1.732a1.43 1.43 0 001.287-1.444c0-.99-.775-1.526-1.64-1.526h-2.61zm1.172 1.052h1.341c.322 0 .555.252.555.495 0 .312-.303.495-.538.495h-1.358v-.99zM22.805 18.84h-1.198v-4.702h1.198v4.702zM25.644 18.84h-.259c-1.25 0-2.01-.987-2.01-2.331 0-1.378.752-2.37 2.33-2.37h1.297v1.113h-1.344c-.64 0-1.094.501-1.094 1.268 0 .91.518 1.293 1.265 1.293h.309l-.494 1.027zM28.195 14.138l-2.017 4.702h1.313l.373-.941h2.164l.37.941h1.342l-2.015-4.702h-1.53zm.747 1.095l.66 1.645H28.28l.662-1.646zM31.877 18.84v-4.702h1.491l1.904 2.955v-2.955h1.172v4.702h-1.442L33.05 15.81v3.031h-1.173zM8.548 27.069v-4.702h3.826v1.052H9.733v.804h2.58v.99h-2.58v.835h2.641v1.02H8.548zM27.298 27.069v-4.702h3.826v1.052h-2.641v.804h2.567v.99h-2.567v.835h2.641v1.02h-3.826zM12.523 27.069l1.863-2.322-1.907-2.38h1.477l1.136 1.471 1.14-1.471h1.42l-1.883 2.35 1.867 2.352h-1.478l-1.103-1.448-1.076 1.448h-1.456zM17.775 22.368v4.702h1.203v-1.485h1.235c1.044 0 1.836-.556 1.836-1.636 0-.895-.621-1.581-1.684-1.581h-2.59zm1.203 1.063h1.3c.338 0 .579.207.579.541 0 .314-.24.542-.583.542h-1.296V23.43zM22.558 22.367v4.702h1.172v-1.67h.494l1.406 1.67h1.433l-1.543-1.732a1.43 1.43 0 001.287-1.445c0-.99-.775-1.525-1.64-1.525h-2.61zm1.172 1.052h1.34c.322 0 .556.252.556.494 0 .313-.303.495-.538.495H23.73v-.99zM31.668 27.069v-1.02h2.346c.347 0 .498-.19.498-.395 0-.198-.15-.398-.498-.398h-1.06c-.922 0-1.435-.563-1.435-1.408 0-.754.47-1.481 1.84-1.481h2.283l-.494 1.058h-1.975c-.377 0-.493.198-.493.388 0 .195.143.41.432.41h1.11c1.028 0 1.474.584 1.474 1.35 0 .822-.497 1.496-1.53 1.496h-2.498zM35.971 27.069v-1.02h2.347c.348 0 .498-.19.498-.395 0-.198-.15-.398-.498-.398h-1.06c-.922 0-1.436-.563-1.436-1.408 0-.754.47-1.481 1.84-1.481h2.284l-.494 1.058h-1.975c-.377 0-.493.198-.493.388 0 .195.143.41.432.41h1.11c1.028 0 1.474.584 1.474 1.35 0 .822-.497 1.496-1.53 1.496h-2.499z" fill="#016FD0"/></svg><svg fill="none" viewBox="0 0 195 48" id="border_red-gradient" xmlns="http://www.w3.org/2000/svg"><rect x="1" y="1" width="193" height="46" rx="4" stroke="url(#bpaint0_linear)" stroke-width="2"/><defs><linearGradient id="bpaint0_linear" x1="0" y1="48" x2="196.485" y2="7.142" gradientUnits="userSpaceOnUse"><stop stop-color="#DD5645"/><stop offset="1" stop-color="#EA405E"/></linearGradient><clipPath id="bclip0"/></defs></svg><svg fill="none" viewBox="0 0 56 40" id="discover" xmlns="http://www.w3.org/2000/svg"><path d="M56 34.667C56 37.6 53.6 40 50.667 40H5.333C2.4 40 0 37.6 0 34.667V5.333C0 2.4 2.4 0 5.333 0h45.334C53.6 0 56 2.4 56 5.333v29.334z" fill="#F5F5F5"/><path d="M56 34.667C56 37.6 53.6 40 50.667 40H17.333S48.8 34.933 56 20v14.667zM25.333 20c0 2.267 1.734 4 4 4 2.267 0 4-1.733 4-4s-1.733-4-4-4c-2.266 0-4 1.733-4 4z" fill="#FF6D00"/><path d="M10.933 16H12.4v8h-1.467v-8zm8 4c0 2.267 1.734 4 4 4 .667 0 1.2-.133 1.867-.4v-1.733c-.533.533-1.067.8-1.867.8-1.466 0-2.533-1.067-2.533-2.667 0-1.467 1.067-2.667 2.533-2.667.667 0 1.2.267 1.867.8V16.4c-.667-.267-1.2-.533-1.867-.533-2.266.133-4 2-4 4.133zM36.8 21.2L34.667 16h-1.6l3.333 8h.8l3.333-8h-1.6L36.8 21.2zm4.4 2.8h4.267v-1.333h-2.8v-2.134h2.666V19.2h-2.666v-1.867h2.8V16H41.2v8zm10.133-5.6c0-1.467-.933-2.4-2.666-2.4H46.4v8h1.467v-3.2H48l2.133 3.2H52l-2.4-3.333c1.067-.267 1.733-1.067 1.733-2.267zm-3.066 1.333h-.4v-2.4h.4c.933 0 1.466.4 1.466 1.2 0 .667-.4 1.2-1.466 1.2zM6.267 16H4v8h2.133c3.334 0 4.134-2.8 4.134-4 .133-2.4-1.6-4-4-4zm-.4 6.667h-.4v-5.334H6c2 0 2.8 1.334 2.8 2.667 0 .533-.133 2.667-2.933 2.667zm10.533-3.6c-.933-.4-1.2-.534-1.2-.934 0-.533.533-.8 1.067-.8.4 0 .8.134 1.2.667l.8-1.067C17.6 16.267 16.933 16 16 16c-1.333 0-2.4.933-2.4 2.267 0 1.066.533 1.6 1.867 2.133.8.267 1.466.533 1.466 1.2 0 .667-.533 1.067-1.2 1.067-.666 0-1.333-.4-1.6-1.067l-.933.933C13.867 23.6 14.667 24 15.867 24c1.6 0 2.666-1.067 2.666-2.533 0-1.2-.533-1.734-2.133-2.4z" fill="#000"/></svg><svg fill="none" viewBox="0 0 24 24" id="emoji" xmlns="http://www.w3.org/2000/svg"><g clip-path="url(#dclip0)"><path d="M12 24c6.627 0 12-5.373 12-12S18.627 0 12 0 0 5.373 0 12s5.373 12 12 12z" fill="#FFD93B"/><path d="M24 12c0 6.63-5.374 12-12 12-3.772 0-7.14-1.74-9.341-4.466a11.937 11.937 0 007.534 2.659c6.626 0 12-5.37 12-12 0-2.854-.994-5.475-2.66-7.534A11.987 11.987 0 0124 12z" fill="#F4C534"/><path d="M18.205 14.497c1.054.289-.635 5.896-6.205 5.937-5.57-.041-7.26-5.648-6.205-5.937.843-.416 3.104 1.887 6.205 1.887 3.143 0 5.362-2.303 6.205-1.887z" fill="#3E4347"/><path d="M8.126 12.037a.208.208 0 01-.265.05c-.675-.355-3.39-1.875-3.65-3.29a1.648 1.648 0 011.32-1.92c.645-.12 1.27.155 1.635.66.155-.6.645-1.08 1.29-1.195a1.642 1.642 0 011.914 1.32c.26 1.415-1.74 3.8-2.244 4.375z" fill="#E24B4B"/><path d="M8.41 11.702c-.114.14-.215.255-.284.335a.208.208 0 01-.265.05c-.675-.355-3.39-1.875-3.65-3.29-.15-.805.31-1.58 1.055-1.845-.38.37-.575.92-.47 1.48.255 1.395 2.89 2.89 3.615 3.27z" fill="#D03F3F"/><path opacity=".2" d="M9.625 7.472c-.132-.334-.42-.534-.646-.445-.225.088-.3.43-.17.765.132.334.42.533.646.445.225-.088.3-.431.17-.765z" fill="#fff"/><path d="M15.598 12.037c.065.08.175.1.264.05.676-.355 3.39-1.875 3.65-3.29a1.648 1.648 0 00-1.32-1.92 1.643 1.643 0 00-1.634.66 1.625 1.625 0 00-1.29-1.195 1.642 1.642 0 00-1.915 1.32c-.26 1.415 1.74 3.8 2.245 4.375z" fill="#E24B4B"/><path d="M15.313 11.702c.114.14.215.255.285.335.065.08.175.1.264.05.676-.355 3.39-1.875 3.65-3.29.15-.805-.309-1.58-1.055-1.845.38.37.576.92.47 1.48-.254 1.395-2.89 2.89-3.614 3.27z" fill="#D03F3F"/><path opacity=".2" d="M14.742 7.028c-.225-.089-.514.11-.645.445-.131.334-.055.677.17.765.225.088.514-.11.645-.445.131-.334.055-.677-.17-.765z" fill="#fff"/><path d="M12 20.434a7.11 7.11 0 002.799-.57 2.942 2.942 0 00-.928-1.335c-.342-.282-.81-.332-1.232-.196a2.713 2.713 0 01-.818.124c-.235 0-.452-.03-.652-.077a1.326 1.326 0 00-1.265.354 2.935 2.935 0 00-.702 1.132c.795.343 1.723.56 2.798.568z" fill="#E24B4B"/></g><defs><clipPath id="dclip0"><path d="M0 0h24v24H0V0z" fill="#fff"/></clipPath></defs></svg><svg fill="none" viewBox="0 0 60 60" id="gradient-radius" xmlns="http://www.w3.org/2000/svg"><path d="M59 30c0 16.016-12.984 29-29 29S1 46.016 1 30 13.984 1 30 1s29 12.984 29 29z" stroke="#E74559" stroke-width="2"/></svg><svg fill="none" viewBox="0 0 60 60" id="icon-authentic" xmlns="http://www.w3.org/2000/svg"><path d="M1 .001a1 1 0 00-1 1v48a1 1 0 001 1h27v-2h-4a1 1 0 01-1-1H4a1 1 0 01-1-1v-42a1 1 0 011-1h36a1 1 0 011 1v9h3v-12a1 1 0 00-1-1H1z" fill="url(#fpaint0_linear)"/><path d="M10 8.001a1 1 0 011-1h22a1 1 0 110 2H11a1 1 0 01-1-1z" fill="url(#fpaint1_linear)"/><path d="M10 18.001a1 1 0 011-1h19a1 1 0 010 2H11a1 1 0 01-1-1z" fill="url(#fpaint2_linear)"/><path d="M10 28.001a1 1 0 011-1h13a1 1 0 010 2H11a1 1 0 01-1-1z" fill="url(#fpaint3_linear)"/><path d="M10 13.001a1 1 0 011-1h22a1 1 0 010 2H11a1 1 0 01-1-1z" fill="url(#fpaint4_linear)"/><path d="M10 23.001a1 1 0 011-1h15a1 1 0 010 2H11a1 1 0 01-1-1z" fill="url(#fpaint5_linear)"/><path d="M10 33.001a1 1 0 011-1h12a1 1 0 010 2H11a1 1 0 01-1-1z" fill="url(#fpaint6_linear)"/><path d="M10 43.001a1 1 0 011-1h8a1 1 0 010 2h-8a1 1 0 01-1-1z" fill="url(#fpaint7_linear)"/><path d="M17 48.501a1.5 1.5 0 011.5-1.5h10a1.5 1.5 0 010 3h-10a1.5 1.5 0 01-1.5-1.5z" fill="url(#fpaint8_linear)"/><path d="M42.5 2.001a1.5 1.5 0 011.5 1.5v10a1.5 1.5 0 11-3 0v-10a1.5 1.5 0 011.5-1.5z" fill="url(#fpaint9_linear)"/><path d="M38 42.001a1 1 0 011 1v16a1 1 0 11-2 0v-16a1 1 0 011-1z" fill="url(#fpaint10_linear)"/><path d="M44.432 52.567a1 1 0 010 1.414l-5.718 5.718a1 1 0 01-1.414-1.414l5.718-5.718a1 1 0 011.414 0z" fill="url(#fpaint11_linear)"/><path d="M43.3 52.3a1 1 0 011.413 0l5.992 5.993a1 1 0 01-1.414 1.414L43.3 53.715a1 1 0 010-1.415z" fill="url(#fpaint12_linear)"/><path d="M50 42.001a1 1 0 011 1v16a1 1 0 11-2 0v-16a1 1 0 011-1z" fill="url(#fpaint13_linear)"/><path fill-rule="evenodd" clip-rule="evenodd" d="M43.5 45.001c7.456 0 13.5-6.044 13.5-13.5s-6.044-13.5-13.5-13.5S30 24.045 30 31.501s6.044 13.5 13.5 13.5zm0-2c6.351 0 11.5-5.148 11.5-11.5 0-6.35-5.149-11.5-11.5-11.5S32 25.151 32 31.501c0 6.352 5.149 11.5 11.5 11.5z" fill="url(#fpaint14_linear)"/><path d="M43.044 26.022a.5.5 0 01.912 0l1.226 2.74a.5.5 0 00.403.293l2.985.319a.5.5 0 01.282.868l-2.227 2.013a.5.5 0 00-.154.474l.619 2.937a.5.5 0 01-.739.537l-2.602-1.497a.5.5 0 00-.498 0l-2.602 1.497a.5.5 0 01-.739-.537l.62-2.937a.5.5 0 00-.155-.474l-2.227-2.013a.5.5 0 01.282-.868l2.985-.319a.5.5 0 00.403-.293l1.226-2.74z" fill="url(#fpaint15_linear)"/><defs><linearGradient id="fpaint0_linear" x1="0" y1="60.001" x2="59.776" y2="57.095" gradientUnits="userSpaceOnUse"><stop stop-color="#3591D0"/><stop offset="1" stop-color="#26B8DC"/></linearGradient><linearGradient id="fpaint1_linear" x1="0" y1="60.001" x2="59.776" y2="57.095" gradientUnits="userSpaceOnUse"><stop stop-color="#3591D0"/><stop offset="1" stop-color="#26B8DC"/></linearGradient><linearGradient id="fpaint2_linear" x1="0" y1="60.001" x2="59.776" y2="57.095" gradientUnits="userSpaceOnUse"><stop stop-color="#3591D0"/><stop offset="1" stop-color="#26B8DC"/></linearGradient><linearGradient id="fpaint3_linear" x1="0" y1="60.001" x2="59.776" y2="57.095" gradientUnits="userSpaceOnUse"><stop stop-color="#3591D0"/><stop offset="1" stop-color="#26B8DC"/></linearGradient><linearGradient id="fpaint4_linear" x1="0" y1="60.001" x2="59.776" y2="57.095" gradientUnits="userSpaceOnUse"><stop stop-color="#3591D0"/><stop offset="1" stop-color="#26B8DC"/></linearGradient><linearGradient id="fpaint5_linear" x1="0" y1="60.001" x2="59.776" y2="57.095" gradientUnits="userSpaceOnUse"><stop stop-color="#3591D0"/><stop offset="1" stop-color="#26B8DC"/></linearGradient><linearGradient id="fpaint6_linear" x1="0" y1="60.001" x2="59.776" y2="57.095" gradientUnits="userSpaceOnUse"><stop stop-color="#3591D0"/><stop offset="1" stop-color="#26B8DC"/></linearGradient><linearGradient id="fpaint7_linear" x1="0" y1="60.001" x2="59.776" y2="57.095" gradientUnits="userSpaceOnUse"><stop stop-color="#3591D0"/><stop offset="1" stop-color="#26B8DC"/></linearGradient><linearGradient id="fpaint8_linear" x1="0" y1="60.001" x2="59.776" y2="57.095" gradientUnits="userSpaceOnUse"><stop stop-color="#3591D0"/><stop offset="1" stop-color="#26B8DC"/></linearGradient><linearGradient id="fpaint9_linear" x1="0" y1="60.001" x2="59.776" y2="57.095" gradientUnits="userSpaceOnUse"><stop stop-color="#3591D0"/><stop offset="1" stop-color="#26B8DC"/></linearGradient><linearGradient id="fpaint10_linear" x1="0" y1="60.001" x2="59.776" y2="57.095" gradientUnits="userSpaceOnUse"><stop stop-color="#3591D0"/><stop offset="1" stop-color="#26B8DC"/></linearGradient><linearGradient id="fpaint11_linear" x1="0" y1="60.001" x2="59.776" y2="57.095" gradientUnits="userSpaceOnUse"><stop stop-color="#3591D0"/><stop offset="1" stop-color="#26B8DC"/></linearGradient><linearGradient id="fpaint12_linear" x1="0" y1="60.001" x2="59.776" y2="57.095" gradientUnits="userSpaceOnUse"><stop stop-color="#3591D0"/><stop offset="1" stop-color="#26B8DC"/></linearGradient><linearGradient id="fpaint13_linear" x1="0" y1="60.001" x2="59.776" y2="57.095" gradientUnits="userSpaceOnUse"><stop stop-color="#3591D0"/><stop offset="1" stop-color="#26B8DC"/></linearGradient><linearGradient id="fpaint14_linear" x1="0" y1="60.001" x2="59.776" y2="57.095" gradientUnits="userSpaceOnUse"><stop stop-color="#3591D0"/><stop offset="1" stop-color="#26B8DC"/></linearGradient><linearGradient id="fpaint15_linear" x1="0" y1="60.001" x2="59.776" y2="57.095" gradientUnits="userSpaceOnUse"><stop stop-color="#3591D0"/><stop offset="1" stop-color="#26B8DC"/></linearGradient></defs></svg><svg fill="none" viewBox="0 0 17 30" id="icon-left" xmlns="http://www.w3.org/2000/svg"><path fill-rule="evenodd" clip-rule="evenodd" d="M13.842 28.907a1.85 1.85 0 102.616-2.616L4.892 14.724 16.458 3.158A1.85 1.85 0 1013.842.542L1.046 13.338c-.367.366-.547.849-.541 1.33a1.846 1.846 0 00.537 1.439l12.8 12.8z" fill="#000"/></svg><svg fill="none" viewBox="0 0 12 9" id="icon-list" xmlns="http://www.w3.org/2000/svg"><path d="M3.618 8.678l.03.031a.924.924 0 001.345 0l6.728-7.015a1.022 1.022 0 000-1.403.924.924 0 00-1.345 0L4.32 6.604 1.624 3.792a.924.924 0 00-1.345 0 1.022 1.022 0 000 1.403l3.34 3.483z" fill="#FF3D3D"/></svg><svg fill="none" viewBox="0 0 29 30" id="icon-play" xmlns="http://www.w3.org/2000/svg"><path d="M28.292 14.113a1 1 0 010 1.774L1.462 29.83A1 1 0 010 28.942V1.058A1 1 0 011.461.171l26.831 13.942z" fill="#fff"/></svg><svg fill="none" viewBox="0 0 70 70" id="icon-play-hover" xmlns="http://www.w3.org/2000/svg"><mask id="ja" fill="#fff"><path fill-rule="evenodd" clip-rule="evenodd" d="M35 70c19.33 0 35-15.67 35-35S54.33 0 35 0 0 15.67 0 35s15.67 35 35 35zm-8.539-20.17l26.831-13.943a1 1 0 000-1.774L26.462 20.17a1 1 0 00-1.462.887v27.884a1 1 0 001.461.887z"/></mask><path fill-rule="evenodd" clip-rule="evenodd" d="M35 70c19.33 0 35-15.67 35-35S54.33 0 35 0 0 15.67 0 35s15.67 35 35 35zm-8.539-20.17l26.831-13.943a1 1 0 000-1.774L26.462 20.17a1 1 0 00-1.462.887v27.884a1 1 0 001.461.887z" fill="#fff"/><path d="M53.292 35.887l1.383 2.662-1.383-2.662zM26.462 49.83l-1.384-2.662 1.383 2.662zm26.83-15.716l-1.383 2.662 1.383-2.662zM26.462 20.17l1.382-2.662-1.383 2.662zM25 21.058h3-3zm0 27.884h-3 3zM67 35c0 17.673-14.327 32-32 32v6c20.987 0 38-17.013 38-38h-6zM35 3c17.673 0 32 14.327 32 32h6C73 14.013 55.987-3 35-3v6zM3 35C3 17.327 17.327 3 35 3v-6C14.013-3-3 14.013-3 35h6zm32 32C17.327 67 3 52.673 3 35h-6c0 20.987 17.013 38 38 38v-6zm16.909-33.775L25.078 47.167l2.766 5.324L54.675 38.55l-2.766-5.324zm0 3.55c-1.437-.747-1.437-2.803 0-3.55l2.767 5.324c2.874-1.493 2.874-5.605 0-7.098l-2.767 5.324zM25.078 22.833l26.831 13.942 2.767-5.324-26.832-13.942-2.766 5.324zM28 21.058c0 1.5-1.59 2.467-2.922 1.775l2.766-5.324c-2.662-1.384-5.844.548-5.844 3.55h6zm0 27.884V21.058h-6v27.884h6zm-2.922-1.775c1.331-.692 2.922.274 2.922 1.775h-6c0 3 3.182 4.933 5.844 3.55l-2.766-5.325z" fill="#fff" mask="url(#ja)"/></svg><svg fill="none" viewBox="0 0 61 60" id="icon-price" xmlns="http://www.w3.org/2000/svg"><path fill-rule="evenodd" clip-rule="evenodd" d="M33.397 2.211C32.419 1.111 31.432 0 30.002 0s-2.416 1.11-3.394 2.21l-.001.001c-.579.652-1.153 1.298-1.504 1.36-.36.065-1.13-.357-1.898-.776l-.002-.002h-.001c-1.27-.695-2.532-1.386-3.825-.912-1.307.48-1.797 1.831-2.285 3.176-.289.797-.577 1.591-.852 1.75-.275.158-1.12.013-1.965-.133h-.004c-1.42-.245-2.838-.49-3.89.386-1.048.87-1.042 2.291-1.035 3.713.004.839.008 1.678-.198 1.918-.206.24-1.043.38-1.882.52h-.003c-1.425.236-2.852.473-3.55 1.647-.697 1.17-.217 2.507.266 3.847v.001c.29.804.58 1.611.462 1.921-.116.31-.86.735-1.607 1.163l-.002.001c-1.264.725-2.537 1.454-2.788 2.822-.248 1.346.653 2.465 1.564 3.594v.001c.56.693 1.123 1.392 1.123 1.792 0 .4-.563 1.098-1.122 1.791-.911 1.13-1.813 2.25-1.565 3.595.251 1.368 1.524 2.098 2.788 2.822l.002.002c.748.428 1.49.853 1.607 1.162.117.31-.173 1.117-.462 1.922-.482 1.34-.963 2.677-.267 3.848.699 1.174 2.126 1.411 3.551 1.647.84.14 1.68.279 1.885.52.206.24.202 1.079.198 1.918-.007 1.421-.013 2.843 1.034 3.713 1.053.875 2.47.63 3.89.387h.002c.846-.147 1.693-.293 1.968-.134.275.159.563.953.852 1.75v.002c.489 1.345.978 2.694 2.285 3.173 1.294.474 2.556-.216 3.826-.912l.002-.001c.768-.42 1.538-.841 1.898-.777.351.063.925.709 1.504 1.36v.002c.979 1.1 1.966 2.21 3.395 2.21 1.43 0 2.417-1.11 3.395-2.211v-.002c.58-.65 1.153-1.296 1.504-1.358.36-.065 1.132.357 1.9.778 1.27.695 2.532 1.386 3.825.912 1.308-.48 1.798-1.83 2.286-3.176l.001-.005c.289-.795.576-1.586.85-1.745.276-.158 1.121-.013 1.966.133h.003c1.42.245 2.838.49 3.891-.385 1.047-.87 1.041-2.292 1.035-3.714v-.005c-.004-.837-.008-1.673.197-1.913.206-.24 1.042-.38 1.88-.519h.005c1.425-.237 2.853-.474 3.551-1.648.697-1.171.216-2.507-.266-3.848-.29-.804-.58-1.611-.463-1.921.117-.31.86-.735 1.607-1.163 1.266-.725 2.539-1.455 2.791-2.824.248-1.346-.654-2.465-1.565-3.594l-.002-.002c-.558-.693-1.12-1.39-1.12-1.79 0-.399.562-1.097 1.12-1.79l.002-.001.001-.002c.91-1.129 1.812-2.248 1.564-3.593-.252-1.37-1.525-2.098-2.79-2.823h-.001l-.002-.001c-.746-.428-1.488-.854-1.605-1.162-.117-.31.173-1.117.463-1.922.482-1.34.963-2.677.266-3.848-.698-1.174-2.125-1.41-3.55-1.647-.84-.14-1.68-.279-1.886-.52-.205-.24-.201-1.075-.197-1.912v-.006c.006-1.421.012-2.843-1.035-3.713-1.053-.875-2.471-.63-3.891-.386h-.003c-.845.146-1.69.292-1.965.133-.275-.159-.562-.95-.85-1.745l-.002-.004c-.488-1.346-.978-2.696-2.285-3.176-1.294-.474-2.557.216-3.827.912-.767.42-1.54.842-1.9.778-.35-.063-.924-.709-1.503-1.36zM43.553 16.31a1.18 1.18 0 011.19-1.172c.368 0 .698.165.917.425 3.59 3.777 5.788 8.854 5.788 14.437 0 5.834-2.4 11.116-6.282 14.94a21.544 21.544 0 01-15.165 6.188 21.7 21.7 0 01-7.224-1.229 1.175 1.175 0 01-.85-1.123c0-.647.533-1.172 1.19-1.172.12 0 .236.018.345.05l.003.002a19.29 19.29 0 006.536 1.132 19.155 19.155 0 0013.485-5.503c3.452-3.4 5.586-8.097 5.586-13.285 0-4.97-1.96-9.49-5.158-12.85a1.125 1.125 0 01-.077-.08l-.003-.004a1.156 1.156 0 01-.282-.756zm-3.59-2.975c0-.647.532-1.172 1.189-1.172s1.19.525 1.19 1.172c0 .647-.533 1.172-1.19 1.172-.657 0-1.19-.525-1.19-1.172zm-9.962-4.463c2.56 0 5.014.442 7.29 1.252.49.145.848.593.848 1.123a1.18 1.18 0 01-1.19 1.172c-.165 0-.323-.033-.466-.093a19.29 19.29 0 00-6.482-1.114 19.155 19.155 0 00-13.486 5.503c-3.45 3.4-5.585 8.097-5.585 13.285 0 4.958 1.95 9.467 5.134 12.825.026.024.05.05.074.077l.004.006c.175.203.28.466.28.754a1.18 1.18 0 01-1.19 1.172c-.367 0-.695-.164-.913-.421C10.744 40.638 8.555 35.57 8.555 30c0-5.834 2.4-11.116 6.282-14.94a21.542 21.542 0 0115.165-6.188zM17.66 46.665c0-.647.533-1.172 1.19-1.172.657 0 1.189.525 1.189 1.172a1.18 1.18 0 01-1.19 1.172c-.656 0-1.19-.525-1.19-1.172zM31.614 3.747h.001l.001.002c.852.958 1.696 1.908 2.867 2.118 1.19.213 2.331-.413 3.468-1.035.792-.433 1.58-.864 1.85-.765.265.097.57.939.874 1.777.433 1.192.864 2.381 1.892 2.974 1.034.597 2.304.378 3.573.16l.009-.002c.873-.15 1.743-.3 1.943-.133.207.172.203 1.047.199 1.92-.006 1.271-.012 2.541.755 3.437.764.893 2.033 1.104 3.304 1.315h.004c.879.146 1.758.292 1.895.523.137.23-.161 1.059-.461 1.891-.431 1.2-.864 2.402-.444 3.512.414 1.096 1.521 1.73 2.634 2.368l.003.002c.795.455 1.594.913 1.65 1.215.056.304-.514 1.012-1.09 1.726l-.002.003c-.818 1.014-1.643 2.037-1.643 3.245 0 1.208.824 2.23 1.641 3.243l.002.002c.577.716 1.148 1.424 1.092 1.73-.056.301-.855.759-1.65 1.214l-.001.001c-1.114.638-2.222 1.273-2.636 2.369-.42 1.11.013 2.313.444 3.512.3.832.598 1.662.461 1.892-.137.23-1.019.377-1.899.523h-.003c-1.27.21-2.537.421-3.301 1.314-.767.896-.761 2.166-.755 3.437.004.874.008 1.748-.199 1.92-.2.167-1.074.017-1.949-.134h-.003c-1.269-.22-2.539-.438-3.574.16-1.027.592-1.458 1.78-1.89 2.972v.001c-.305.838-.61 1.68-.876 1.777-.27.1-1.057-.332-1.849-.765-1.136-.622-2.279-1.247-3.468-1.034-1.171.209-2.016 1.16-2.868 2.119-.622.7-1.25 1.407-1.613 1.407s-.99-.706-1.613-1.407c-.852-.96-1.696-1.91-2.869-2.12-1.189-.212-2.33.413-3.466 1.034h-.002c-.791.434-1.579.865-1.848.766-.266-.097-.572-.939-.875-1.777-.433-1.192-.864-2.381-1.892-2.974-1.034-.597-2.303-.378-3.57-.16h-.003c-.876.151-1.751.302-1.952.136-.207-.173-.203-1.047-.199-1.921.006-1.271.012-2.541-.755-3.437-.764-.893-2.032-1.103-3.302-1.314h-.003c-.88-.146-1.761-.293-1.898-.523-.137-.23.161-1.06.46-1.892h.001c.431-1.199.864-2.401.444-3.512-.415-1.096-1.523-1.731-2.637-2.37l-.006-.003c-.793-.454-1.589-.91-1.644-1.211-.056-.306.515-1.014 1.092-1.73l.002-.002c.817-1.013 1.64-2.035 1.64-3.243 0-1.209-.824-2.231-1.642-3.245l-.002-.003c-.576-.714-1.146-1.422-1.09-1.726.055-.302.855-.76 1.65-1.215 1.114-.639 2.222-1.274 2.637-2.37.42-1.11-.013-2.313-.444-3.511-.3-.833-.598-1.663-.461-1.892.136-.231 1.015-.377 1.893-.523h.005c1.271-.211 2.54-.422 3.305-1.315.767-.896.761-2.166.755-3.436-.004-.874-.008-1.75.2-1.921.199-.167 1.07-.017 1.944.133l.007.002c1.268.218 2.538.437 3.573-.16 1.028-.593 1.458-1.78 1.89-2.972l.002-.002c.303-.838.609-1.68.875-1.777.27-.1 1.057.332 1.848.765 1.137.622 2.279 1.248 3.468 1.035 1.172-.21 2.017-1.16 2.869-2.12.622-.7 1.25-1.406 1.613-1.406s.99.706 1.613 1.406zm-1.648 34.482c.176-.026.355-.02.529.017 1.906-.067 3.406-1.601 3.37-3.448-.034-1.847-1.59-3.327-3.498-3.327-3.299.001-6.088-2.362-6.527-5.528-.438-3.166 1.61-6.158 4.792-7v-1.45c0-.824.69-1.493 1.542-1.493.852 0 1.542.669 1.542 1.493v1.36c3.049.622 5.231 3.225 5.236 6.242 0 .825-.69 1.493-1.542 1.493-.852 0-1.542-.668-1.542-1.493 0-1.873-1.568-3.39-3.501-3.39-1.934 0-3.502 1.517-3.502 3.39 0 1.872 1.568 3.39 3.502 3.39 3.374.001 6.2 2.47 6.549 5.72.347 3.25-1.898 6.23-5.2 6.899v1.403c0 .824-.69 1.493-1.542 1.493-.852 0-1.542-.669-1.542-1.493v-1.494c-2.861-.76-4.846-3.277-4.85-6.15 0-.826.69-1.494 1.541-1.494.852 0 1.543.668 1.543 1.493.003 1.72 1.335 3.168 3.1 3.367z" fill="url(#kpaint0_linear)"/><defs><linearGradient id="kpaint0_linear" x1=".002" y1="60" x2="62.908" y2="56.78" gradientUnits="userSpaceOnUse"><stop stop-color="#3591D0"/><stop offset="1" stop-color="#26B8DC"/></linearGradient></defs></svg><svg fill="none" viewBox="0 0 61 60" id="icon-return" xmlns="http://www.w3.org/2000/svg"><path fill-rule="evenodd" clip-rule="evenodd" d="M6.658 14.436L.294 8.072a1 1 0 010-1.414L6.658.294a1 1 0 011.414 1.414L3.415 6.365h38.342c3.07-.1 7.617.832 11.42 3.956 3.849 3.162 6.825 8.481 6.825 16.928 0 9.988-4.194 15.145-8.525 17.744-2.134 1.28-4.26 1.916-5.846 2.234-.795.159-1.46.24-1.932.28a12.272 12.272 0 01-.711.04h-.064s-.002 0-.002-1v-1h.027a5.02 5.02 0 00.114-.003c.104-.004.261-.013.465-.03.408-.035.998-.106 1.71-.248 1.429-.286 3.323-.856 5.21-1.988 3.708-2.225 7.554-6.718 7.554-16.029 0-7.928-2.767-12.648-6.095-15.383-3.37-2.768-7.426-3.592-10.1-3.501H3.416l4.657 4.657a1 1 0 11-1.414 1.414zM23.626 21.4h-5.425l-1.783 9.359h8.634L23.626 21.4zm-14.105 0h6.844l-1.936 9.359H4.168L9.52 21.4zm15.925 0l1.588 9.359h11.02L32.682 21.4h-7.236zm15.622 9.86a1.005 1.005 0 00-.263-.298l-6.469-10.877a1.125 1.125 0 00-.028-.044 1 1 0 00-1-.98H8.892a1 1 0 00-1 .97l-6.454 10.9a.999.999 0 00-.437.827V59a.997.997 0 001 1h38.221a1 1 0 00.978-1V31.758a.995.995 0 00-.133-.497zm-37.77 26.4V33.097h10.337v6.018a1 1 0 001 1h11.782a1 1 0 00.997-.92l.001-.013.001-.016.001-.052V33.097h11.486V57.66H3.298zm12.634-19.884v-4.679h9.188v4.679h-9.188z" fill="url(#lpaint0_linear)"/><defs><linearGradient id="lpaint0_linear" x1=".001" y1="59.999" x2="62.908" y2="56.778" gradientUnits="userSpaceOnUse"><stop stop-color="#3591D0"/><stop offset="1" stop-color="#26B8DC"/></linearGradient></defs></svg><svg fill="none" viewBox="0 0 17 30" id="icon-right" xmlns="http://www.w3.org/2000/svg"><path fill-rule="evenodd" clip-rule="evenodd" d="M3.158 1.093A1.85 1.85 0 00.542 3.71l11.566 11.567L.542 26.842a1.85 1.85 0 102.616 2.616l12.796-12.796c.367-.366.547-.849.541-1.33a1.846 1.846 0 00-.537-1.439l-12.8-12.8z" fill="#000"/></svg><svg fill="none" viewBox="0 0 60 60" id="icon-shipping" xmlns="http://www.w3.org/2000/svg"><g clip-path="url(#nclip0)"><path d="M55.8 32.087l-1.554-6.215a.94.94 0 00.743-.919v-1.002a3.95 3.95 0 00-3.945-3.945h-7.077v-2.067c0-1.07-.871-1.942-1.942-1.942h-13.16l7.997-3.198a.94.94 0 10-.697-1.745l-6.548 2.619c1.995-1.28 3.97-2.69 4.72-3.674a4.38 4.38 0 00-.825-6.133 4.38 4.38 0 00-6.132.826c-1.07 1.402-2.48 5.34-3.392 8.116-.913-2.775-2.324-6.714-3.393-8.116a4.38 4.38 0 00-6.132-.826A4.38 4.38 0 0013.637 10c.752.985 2.726 2.394 4.721 3.674l-6.548-2.62a.94.94 0 10-.698 1.745l7.997 3.2H5.95c-1.07 0-1.94.87-1.94 1.94v17.036a.94.94 0 001.878 0V17.94c0-.035.028-.063.063-.063h36.075c.035 0 .063.028.063.063v17.036a.94.94 0 001.879 0V33.91h11.087a3.074 3.074 0 012.92 2.13h-2.922a.94.94 0 00-.94.939v2.004a2.947 2.947 0 002.944 2.943h1.065v4.134h-2.457a5.96 5.96 0 00-5.622-4.008 5.96 5.96 0 00-5.623 4.008h-.453v-7.077a.94.94 0 00-1.879 0v7.077H22.596a5.96 5.96 0 00-5.623-4.009 5.96 5.96 0 00-5.623 4.009h-5.4a.063.063 0 01-.063-.063V43.93h4.071a.94.94 0 000-1.879H.94a.94.94 0 000 1.88h3.07v2.066c0 1.07.87 1.942 1.941 1.942h5.075l-.002.062c0 3.281 2.67 5.95 5.95 5.95 3.28 0 5.95-2.669 5.95-5.95l-.002-.062h21.172l-.001.062c0 3.281 2.669 5.95 5.95 5.95 3.28 0 5.95-2.669 5.95-5.95l-.002-.062h3.07a.94.94 0 00.94-.94V36.98a4.955 4.955 0 00-4.2-4.892zM20.262 12.648c-3.706-2.303-4.805-3.362-5.13-3.789a2.499 2.499 0 01.47-3.499c.452-.344.983-.51 1.511-.51.753 0 1.497.338 1.988.982.909 1.191 2.332 5.202 3.272 8.092-.634-.374-1.363-.81-2.111-1.276zm5.34 1.276c.94-2.89 2.363-6.9 3.272-8.093a2.5 2.5 0 013.499-.47 2.5 2.5 0 01.47 3.498c-.325.427-1.424 1.486-5.13 3.789-.748.465-1.477.902-2.11 1.276zm18.365 7.96h7.077a2.07 2.07 0 012.067 2.067v.063h-9.144v-2.13zm0 10.147v-6.138h8.348l1.534 6.138h-9.882zM16.973 52.072a4.076 4.076 0 01-4.071-4.07 4.076 4.076 0 014.07-4.072 4.076 4.076 0 014.072 4.071 4.076 4.076 0 01-4.071 4.071zm33.069 0a4.076 4.076 0 01-4.071-4.07 4.076 4.076 0 014.07-4.072 4.076 4.076 0 014.072 4.071 4.076 4.076 0 01-4.071 4.071zm8.08-12.025h-1.066a1.066 1.066 0 01-1.064-1.064v-1.065h2.129v2.13z" fill="url(#npaint0_linear)"/><path d="M16.973 46.06c-1.07 0-1.942.87-1.942 1.941 0 1.071.871 1.942 1.942 1.942 1.07 0 1.941-.871 1.941-1.942 0-1.07-.87-1.941-1.941-1.941z" fill="url(#npaint1_linear)"/><path d="M50.042 46.06c-1.07 0-1.942.87-1.942 1.941 0 1.071.871 1.942 1.942 1.942 1.07 0 1.941-.871 1.941-1.942 0-1.07-.87-1.941-1.941-1.941z" fill="url(#npaint2_linear)"/><path d="M39.019 42.051h-14.03a.94.94 0 000 1.88h14.03a.94.94 0 000-1.88z" fill="url(#npaint3_linear)"/><path d="M14.969 38.043H2.944a.94.94 0 000 1.88h12.025a.94.94 0 000-1.88z" fill="url(#npaint4_linear)"/><path d="M14.969 24.014H10.96a.94.94 0 00-.94.94v8.016a.94.94 0 001.88 0V29.9h2.067a.94.94 0 000-1.879H11.9v-2.13h3.069a.94.94 0 000-1.878z" fill="url(#npaint5_linear)"/><path d="M22.362 30.341a3.444 3.444 0 001.563-2.883c0-1.899-1.545-3.444-3.445-3.444h-2.505a.94.94 0 00-.94.94v8.016a.94.94 0 001.88 0v-2.067h1.563l1.726 2.588a.938.938 0 101.563-1.042l-1.405-2.107zm-1.882-1.317h-1.566v-3.131h1.566c.864 0 1.566.702 1.566 1.566 0 .863-.702 1.565-1.566 1.565z" fill="url(#npaint6_linear)"/><path d="M30 32.03h-3.069v-2.132l.063.003h2.004a.94.94 0 000-1.879h-2.004c-.022 0-.042.002-.063.003v-2.132H30a.94.94 0 000-1.88h-4.008a.94.94 0 00-.94.94v8.017c0 .519.42.94.94.94H30a.94.94 0 000-1.88z" fill="url(#npaint7_linear)"/><path d="M37.015 32.03h-3.07v-2.129h1.065a.94.94 0 000-1.879h-1.064v-2.13h3.069a.94.94 0 000-1.878h-4.009a.94.94 0 00-.94.94v8.016c0 .519.421.94.94.94h4.009a.94.94 0 000-1.88z" fill="url(#npaint8_linear)"/></g><defs><linearGradient id="npaint0_linear" x1="0" y1="53.951" x2="62.843" y2="50.165" gradientUnits="userSpaceOnUse"><stop stop-color="#3591D0"/><stop offset="1" stop-color="#26B8DC"/></linearGradient><linearGradient id="npaint1_linear" x1="0" y1="53.951" x2="62.843" y2="50.165" gradientUnits="userSpaceOnUse"><stop stop-color="#3591D0"/><stop offset="1" stop-color="#26B8DC"/></linearGradient><linearGradient id="npaint2_linear" x1="0" y1="53.951" x2="62.843" y2="50.165" gradientUnits="userSpaceOnUse"><stop stop-color="#3591D0"/><stop offset="1" stop-color="#26B8DC"/></linearGradient><linearGradient id="npaint3_linear" x1="0" y1="53.951" x2="62.843" y2="50.165" gradientUnits="userSpaceOnUse"><stop stop-color="#3591D0"/><stop offset="1" stop-color="#26B8DC"/></linearGradient><linearGradient id="npaint4_linear" x1="0" y1="53.951" x2="62.843" y2="50.165" gradientUnits="userSpaceOnUse"><stop stop-color="#3591D0"/><stop offset="1" stop-color="#26B8DC"/></linearGradient><linearGradient id="npaint5_linear" x1="0" y1="53.951" x2="62.843" y2="50.165" gradientUnits="userSpaceOnUse"><stop stop-color="#3591D0"/><stop offset="1" stop-color="#26B8DC"/></linearGradient><linearGradient id="npaint6_linear" x1="0" y1="53.951" x2="62.843" y2="50.165" gradientUnits="userSpaceOnUse"><stop stop-color="#3591D0"/><stop offset="1" stop-color="#26B8DC"/></linearGradient><linearGradient id="npaint7_linear" x1="0" y1="53.951" x2="62.843" y2="50.165" gradientUnits="userSpaceOnUse"><stop stop-color="#3591D0"/><stop offset="1" stop-color="#26B8DC"/></linearGradient><linearGradient id="npaint8_linear" x1="0" y1="53.951" x2="62.843" y2="50.165" gradientUnits="userSpaceOnUse"><stop stop-color="#3591D0"/><stop offset="1" stop-color="#26B8DC"/></linearGradient><clipPath id="nclip0"><path fill="#fff" d="M0 0h60v60H0z"/></clipPath></defs></svg><svg fill="none" viewBox="0 0 10 8" id="icon-variation_active" xmlns="http://www.w3.org/2000/svg"><path d="M9.548 1.423L4.13 6.839a.831.831 0 01-1.178 0L.244 4.131a.832.832 0 111.179-1.178l2.119 2.119L8.369.244a.832.832 0 111.179 1.179z" fill="#FAFAFA"/></svg><svg fill="none" viewBox="0 0 208 50" id="logo" xmlns="http://www.w3.org/2000/svg"><path d="M.4 23.1h55.9c0-.9-.1-1.9-.3-2.8H.7c-.2 1-.2 1.9-.3 2.8z" fill="url(#ppaint0_linear)"/><path d="M28.4 50c14.3 0 26.2-10 27.8-22.8H.6C2.2 40 14 50 28.4 50z" fill="url(#ppaint1_linear)"/><path d="M48.9 6.5h-41c-.7.7-1.3 1.4-1.9 2.1h44.8c-.6-.7-1.3-1.4-1.9-2.1z" fill="url(#ppaint2_linear)"/><path d="M51.9 10.2H4.8c-.3.5-.7 1-1 1.5h49.1c-.3-.5-.6-1-1-1.5z" fill="url(#ppaint3_linear)"/><path d="M38.6 0H18.1c-1 .4-2 .8-2.9 1.2h26.4l-3-1.2z" fill="url(#ppaint4_linear)"/><path d="M.9 19h54.8l-.6-2.4H1.6c-.3.8-.5 1.6-.7 2.4z" fill="url(#ppaint5_linear)"/><path d="M54.6 15.2c-.3-.7-.6-1.4-.9-2H3c-.3.7-.6 1.3-.9 2h52.5z" fill="url(#ppaint6_linear)"/><path d="M.6 26.6h55.6c.1-.8.1-1.7.1-2.6H.4c0 .9.1 1.8.2 2.6z" fill="url(#ppaint7_linear)"/><path d="M44.4 2.9H12.3c-.9.6-1.8 1.2-2.6 1.9h37.4c-.9-.7-1.7-1.3-2.7-1.9z" fill="url(#ppaint8_linear)"/><path d="M66 37.3l4.4-24.9c.5-2.7 2.1-4.1 4.9-4.1h5.6c2.7 0 4.1 1.7 3.6 4.4L80 37.6c-.5 2.7-2.1 4.1-4.8 4.1h-5.6c-2.7 0-4.1-1.7-3.6-4.4zm9 .8c.6 0 1.1-.3 1.3-1.1l4.3-24.3c.1-.5 0-.8-.7-.8h-4.6c-.6 0-1.1.3-1.3 1.1l-4.3 24.3c-.1.5 0 .8.7.8H75zM92.1 12h-4.9l.6-3.6h13.5l-.6 3.6h-4.9l-5.2 29.4h-3.8L92.1 12zM107.8 8.5h6.1l-.9 33h-3.8l.2-7.5h-6.3l-2.4 7.5H97l10.8-33zm1.8 21.8l.6-18.3-5.8 18.3h5.2zM121.8 8.5h3.8l-2.8 15.8 9.5-15.8h4.1l-10 16.7 4.1 16.3h-3.7l-4.1-16.2-2.9 16.2H116l5.8-33zM133.6 37.3l5.1-28.8h3.8l-5.1 28.8c-.1.5 0 .8.7.8h4.5c.6 0 1.1-.3 1.3-1.1l5-28.5h3.8l-5.1 29.1c-.5 2.7-2.1 4.1-4.8 4.1h-5.5c-2.8 0-4.1-1.7-3.7-4.4zM156.5 38.1h4.4c.6 0 1.1-.3 1.3-1.1l4.4-24.9h-5.5l.6-3.6h9.2l-5.1 29.1c-.5 2.7-2.1 4.1-4.8 4.1h-5.1l.6-3.6zM170 37.3l4.4-24.9c.5-2.7 2.1-4.1 4.9-4.1h5.6c2.7 0 4.1 1.7 3.6 4.4L184 37.6c-.5 2.7-2.1 4.1-4.8 4.1h-5.6c-2.7 0-4.1-1.7-3.6-4.4zm9.1.8c.6 0 1.1-.3 1.3-1.1l4.3-24.3c.1-.5 0-.8-.7-.8h-4.6c-.6 0-1.1.3-1.3 1.1l-4.3 24.3c-.1.5 0 .8.7.8h4.6zM195.2 8.5l1.6 15.1 6.9-15.1h3.9l-9.9 21.2-2.1 11.8h-3.8l2.1-11.8-2.4-21.2h3.7z" fill="#D14B5C"/><defs><linearGradient id="ppaint0_linear" x1="28.354" y1="-.431" x2="28.354" y2="49.9" gradientUnits="userSpaceOnUse"><stop stop-color="#F20F86"/><stop offset=".252" stop-color="#F44275"/><stop offset=".824" stop-color="#FAC24A"/><stop offset="1" stop-color="#FCEA3D"/></linearGradient><linearGradient id="ppaint1_linear" x1="28.353" y1="-.431" x2="28.353" y2="49.9" gradientUnits="userSpaceOnUse"><stop stop-color="#F20F86"/><stop offset=".252" stop-color="#F44275"/><stop offset=".824" stop-color="#FAC24A"/><stop offset="1" stop-color="#FCEA3D"/></linearGradient><linearGradient id="ppaint2_linear" x1="28.354" y1="-.431" x2="28.354" y2="49.9" gradientUnits="userSpaceOnUse"><stop stop-color="#F20F86"/><stop offset=".252" stop-color="#F44275"/><stop offset=".824" stop-color="#FAC24A"/><stop offset="1" stop-color="#FCEA3D"/></linearGradient><linearGradient id="ppaint3_linear" x1="28.354" y1="-.431" x2="28.354" y2="49.9" gradientUnits="userSpaceOnUse"><stop stop-color="#F20F86"/><stop offset=".252" stop-color="#F44275"/><stop offset=".824" stop-color="#FAC24A"/><stop offset="1" stop-color="#FCEA3D"/></linearGradient><linearGradient id="ppaint4_linear" x1="28.354" y1="-.431" x2="28.354" y2="49.9" gradientUnits="userSpaceOnUse"><stop stop-color="#F20F86"/><stop offset=".252" stop-color="#F44275"/><stop offset=".824" stop-color="#FAC24A"/><stop offset="1" stop-color="#FCEA3D"/></linearGradient><linearGradient id="ppaint5_linear" x1="28.354" y1="-.431" x2="28.354" y2="49.9" gradientUnits="userSpaceOnUse"><stop stop-color="#F20F86"/><stop offset=".252" stop-color="#F44275"/><stop offset=".824" stop-color="#FAC24A"/><stop offset="1" stop-color="#FCEA3D"/></linearGradient><linearGradient id="ppaint6_linear" x1="28.354" y1="-.431" x2="28.354" y2="49.9" gradientUnits="userSpaceOnUse"><stop stop-color="#F20F86"/><stop offset=".252" stop-color="#F44275"/><stop offset=".824" stop-color="#FAC24A"/><stop offset="1" stop-color="#FCEA3D"/></linearGradient><linearGradient id="ppaint7_linear" x1="28.354" y1="-.432" x2="28.354" y2="49.9" gradientUnits="userSpaceOnUse"><stop stop-color="#F20F86"/><stop offset=".252" stop-color="#F44275"/><stop offset=".824" stop-color="#FAC24A"/><stop offset="1" stop-color="#FCEA3D"/></linearGradient><linearGradient id="ppaint8_linear" x1="28.353" y1="-.431" x2="28.353" y2="49.9" gradientUnits="userSpaceOnUse"><stop stop-color="#F20F86"/><stop offset=".252" stop-color="#F44275"/><stop offset=".824" stop-color="#FAC24A"/><stop offset="1" stop-color="#FCEA3D"/></linearGradient></defs></svg><svg fill="none" viewBox="0 0 52 40" id="mc" xmlns="http://www.w3.org/2000/svg"><path d="M9.489 39.675v-2.638a1.55 1.55 0 00-.454-1.208 1.583 1.583 0 00-1.217-.462 1.659 1.659 0 00-1.494.747 1.553 1.553 0 00-.598-.564 1.575 1.575 0 00-.806-.183 1.418 1.418 0 00-1.244.624v-.518H2.75v4.202h.933v-2.312a.974.974 0 01.255-.8.995.995 0 01.785-.317c.614 0 .925.396.925 1.108v2.338h.933v-2.33a.979.979 0 01.256-.798 1.001 1.001 0 01.784-.318c.631 0 .934.396.934 1.108v2.338l.933-.017zm13.809-4.202h-1.52v-1.275h-.934v1.275H20v.835h.862v1.934c0 .976.382 1.556 1.476 1.556.408.001.809-.111 1.155-.325l-.266-.783a1.72 1.72 0 01-.818.238c-.445 0-.613-.282-.613-.704v-1.916h1.51l-.008-.835zm7.884-.106a1.264 1.264 0 00-1.12.616v-.51h-.915v4.202h.924v-2.356c0-.695.302-1.082.889-1.082.198-.002.394.034.578.106l.284-.88a1.996 1.996 0 00-.658-.114l.018.018zm-11.92.44a3.205 3.205 0 00-1.733-.44c-1.076 0-1.778.51-1.778 1.345 0 .686.516 1.108 1.467 1.24l.444.061c.507.07.747.202.747.44 0 .325-.338.51-.969.51a2.28 2.28 0 01-1.413-.44l-.445.712a3.091 3.091 0 001.84.545c1.227 0 1.938-.571 1.938-1.371s-.56-1.125-1.485-1.257l-.444-.062c-.4-.053-.72-.132-.72-.413 0-.281.302-.492.809-.492.468.005.927.13 1.333.36l.41-.738zm24.76-.44a1.264 1.264 0 00-1.12.616v-.51h-.915v4.202h.924v-2.356c0-.695.302-1.082.889-1.082.198-.002.394.034.578.106l.284-.88a1.996 1.996 0 00-.658-.114l.018.018zm-11.91 2.198a2.102 2.102 0 00.642 1.594 2.148 2.148 0 001.624.604c.555.028 1.1-.151 1.529-.501l-.445-.739a1.88 1.88 0 01-1.11.378 1.37 1.37 0 01-.894-.43 1.34 1.34 0 010-1.83 1.37 1.37 0 01.893-.43 1.88 1.88 0 011.111.378l.445-.738a2.239 2.239 0 00-1.53-.502 2.168 2.168 0 00-1.623.604 2.121 2.121 0 00-.643 1.594v.018zm8.657 0v-2.092h-.925v.51a1.61 1.61 0 00-1.333-.616c-.59 0-1.155.232-1.571.644-.417.412-.651.971-.651 1.554 0 .583.234 1.142.65 1.554.417.412.983.644 1.572.644a1.629 1.629 0 001.333-.616v.51h.925v-2.092zm-3.44 0c.015-.247.102-.485.252-.684a1.298 1.298 0 011.963-.115 1.266 1.266 0 01.248 1.372 1.274 1.274 0 01-.47.56c-.209.137-.454.21-.704.212a1.29 1.29 0 01-.942-.394 1.26 1.26 0 01-.347-.951zm-11.156-2.198a2.234 2.234 0 00-1.562.666c-.41.417-.637.98-.629 1.563.009.583.25 1.138.673 1.545.423.406.991.63 1.58.622A2.602 2.602 0 0028 39.19l-.445-.677c-.35.279-.785.433-1.235.44a1.186 1.186 0 01-.847-.26 1.161 1.161 0 01-.424-.769h3.155v-.351c0-1.319-.826-2.198-2.017-2.198l-.014-.009zm0 .818a1.061 1.061 0 01.987.622c.056.126.086.26.089.397h-2.222c.016-.282.143-.546.354-.737a1.1 1.1 0 01.774-.282h.018zm23.16 1.389v-3.79h-.889v2.199a1.61 1.61 0 00-1.333-.616c-.59 0-1.154.232-1.571.644-.417.412-.651.971-.651 1.554 0 .583.234 1.142.65 1.554.417.412.983.644 1.572.644a1.629 1.629 0 001.333-.616v.51h.89v-2.083zm1.543 1.49a.447.447 0 01.306.118.406.406 0 01-.138.677.423.423 0 01-.168.036.45.45 0 01-.4-.255.41.41 0 01.093-.458.445.445 0 01.32-.118h-.014zm0 .743a.319.319 0 00.23-.097.324.324 0 000-.44.33.33 0 00-.23-.096.338.338 0 00-.236.096.323.323 0 000 .44c.03.03.067.054.107.07.044.02.093.028.142.027h-.014zm.026-.523a.18.18 0 01.116.035.11.11 0 01.04.092.104.104 0 01-.031.08.156.156 0 01-.094.039l.13.145h-.103l-.12-.145h-.04v.145h-.084v-.387l.186-.004zm-.098.074v.106h.098a.095.095 0 00.053 0 .043.043 0 000-.04.043.043 0 000-.04.093.093 0 00-.053 0l-.098-.026zm-4.889-1.784c.015-.248.103-.485.252-.684a1.284 1.284 0 011.325-.478c.244.057.466.183.638.363a1.264 1.264 0 01.249 1.372 1.272 1.272 0 01-.47.56c-.21.137-.454.21-.705.212a1.287 1.287 0 01-.941-.394 1.26 1.26 0 01-.347-.951zm-31.213 0v-2.101h-.924v.51a1.61 1.61 0 00-1.334-.616c-.589 0-1.154.232-1.57.644-.418.412-.652.971-.652 1.554 0 .583.234 1.142.651 1.554.417.412.982.644 1.571.644a1.63 1.63 0 001.334-.616v.51h.924v-2.083zm-3.44 0c.015-.248.102-.485.252-.684a1.298 1.298 0 011.963-.115 1.265 1.265 0 01.249 1.372 1.273 1.273 0 01-.471.56c-.209.137-.453.21-.704.212a1.287 1.287 0 01-.948-.39 1.26 1.26 0 01-.35-.955h.01z" fill="#000"/><path d="M32.956 3.45h-14v24.884h14V3.451z" fill="#FF5F00"/><path d="M19.845 15.895a15.655 15.655 0 011.605-6.919 15.832 15.832 0 014.506-5.525 16.098 16.098 0 00-8.18-3.292c-2.985-.317-6 .203-8.7 1.501a15.94 15.94 0 00-6.57 5.837A15.696 15.696 0 00.07 15.893c0 2.969.845 5.878 2.437 8.395a15.94 15.94 0 006.57 5.837 16.156 16.156 0 008.7 1.502 16.098 16.098 0 008.18-3.293 15.832 15.832 0 01-4.505-5.523 15.654 15.654 0 01-1.607-6.916z" fill="#EB001B"/><path d="M51.844 15.895c0 2.969-.844 5.878-2.437 8.395a15.94 15.94 0 01-6.57 5.838 16.156 16.156 0 01-8.701 1.5 16.097 16.097 0 01-8.18-3.294 15.859 15.859 0 004.504-5.525 15.681 15.681 0 001.61-6.917c0-2.396-.551-4.76-1.61-6.916a15.858 15.858 0 00-4.504-5.525 16.097 16.097 0 018.18-3.294c2.985-.317 6 .203 8.7 1.5a15.94 15.94 0 016.57 5.838 15.697 15.697 0 012.438 8.395v.005zM50.316 25.697v-.51h.209v-.106h-.53v.106h.227v.51h.094zm1.026 0v-.616h-.16l-.186.44-.187-.44h-.142v.616h.115v-.462l.174.4h.12l.173-.4v.466l.093-.004z" fill="#F79E1B"/></svg><svg fill="none" viewBox="0 0 52 40" id="ms" xmlns="http://www.w3.org/2000/svg"><path d="M15.729 39.666v-2.637a1.544 1.544 0 00-.452-1.206 1.581 1.581 0 00-1.215-.46 1.659 1.659 0 00-1.493.747 1.552 1.552 0 00-.598-.565 1.575 1.575 0 00-.806-.182 1.418 1.418 0 00-1.245.624v-.519h-.924v4.198h.933V37.34a.97.97 0 01.252-.803.992.992 0 01.788-.314c.613 0 .924.396.924 1.108v2.334h.934V37.34a.978.978 0 01.256-.8 1 1 0 01.784-.317c.63 0 .933.396.933 1.108v2.334h.929zm5.2-2.097v-2.097h-.933v.51a1.605 1.605 0 00-1.334-.615c-.59 0-1.154.232-1.571.644-.417.412-.651.97-.651 1.554 0 .583.234 1.142.65 1.554.418.412.983.644 1.572.644a1.624 1.624 0 001.334-.616v.51h.924l.009-2.088zm-3.436 0c.015-.247.103-.485.252-.684a1.298 1.298 0 011.963-.115 1.266 1.266 0 01.249 1.373 1.274 1.274 0 01-.47.56c-.21.136-.454.21-.705.211a1.283 1.283 0 01-.95-.389 1.254 1.254 0 01-.348-.956h.01zm23.187-2.198c.304 0 .606.056.889.167.27.107.516.266.724.466.206.2.37.437.48.7a2.306 2.306 0 010 1.758c-.11.262-.274.5-.48.698-.208.201-.454.36-.724.466a2.54 2.54 0 01-1.822 0 2.142 2.142 0 01-1.195-1.165 2.31 2.31 0 010-1.758 2.143 2.143 0 011.195-1.165c.293-.12.607-.181.924-.18l.01.013zm0 .88c-.181-.003-.36.03-.529.096a1.252 1.252 0 00-.422.277 1.288 1.288 0 00-.28.44 1.51 1.51 0 000 1.09c.062.164.157.313.28.44.12.12.264.214.422.276a1.46 1.46 0 001.053 0c.166-.06.318-.155.445-.277.123-.126.218-.275.28-.44a1.51 1.51 0 000-1.09 1.272 1.272 0 00-.28-.439 1.273 1.273 0 00-.444-.277 1.39 1.39 0 00-.534-.123l.01.027zm-14.729 1.318c0-1.319-.826-2.198-2.013-2.198a2.234 2.234 0 00-1.562.666c-.411.418-.638.98-.63 1.563.009.583.251 1.139.674 1.545.422.406.99.63 1.58.622a2.596 2.596 0 001.738-.589l-.445-.677a2.036 2.036 0 01-1.235.44 1.186 1.186 0 01-.847-.26 1.162 1.162 0 01-.424-.769h3.15c.014-.11.014-.22.014-.343zm-3.16-.369c.017-.28.143-.54.351-.73a1.1 1.1 0 01.765-.285 1.064 1.064 0 01.751.29 1.04 1.04 0 01.324.73l-2.19-.005zm7.049-.66a2.757 2.757 0 00-1.333-.36c-.507 0-.81.185-.81.492 0 .308.32.36.72.414l.445.061c.925.132 1.485.519 1.485 1.257 0 .739-.711 1.372-1.934 1.372a3.087 3.087 0 01-1.835-.545l.444-.712c.408.299.906.454 1.414.44.63 0 .968-.185.968-.51 0-.238-.24-.37-.746-.44l-.445-.062c-.95-.132-1.466-.554-1.466-1.24 0-.834.693-1.344 1.777-1.344a3.2 3.2 0 011.73.44l-.414.738zm4.445-.237h-1.507v1.895c0 .44.15.703.613.703.289-.01.57-.091.818-.237l.267.782a2.187 2.187 0 01-1.156.325c-1.093 0-1.476-.58-1.476-1.556v-1.912h-.862v-.835h.863v-1.275h.933v1.275h1.507v.835zm3.195-.94c.224 0 .447.04.658.114l-.285.879a1.518 1.518 0 00-.577-.105c-.605 0-.89.386-.89 1.08v2.352h-.924v-4.197h.916v.51c.113-.193.277-.352.474-.46.197-.109.42-.162.646-.156l-.018-.017zm6.391 3.692a.45.45 0 01.307.119.405.405 0 010 .589.445.445 0 01-.138.087.423.423 0 01-.169.036.45.45 0 01-.4-.255.408.408 0 01.231-.545.449.449 0 01.147-.031h.022zm0 .743a.32.32 0 00.231-.097.325.325 0 00-.36-.527.325.325 0 00-.106.07.323.323 0 000 .44.33.33 0 00.235.096v.018zm.027-.523a.18.18 0 01.115.035.112.112 0 01.04.092.104.104 0 01-.03.08.157.157 0 01-.094.039l.129.145h-.102l-.12-.145h-.04v.145h-.085v-.404l.187.013zm-.098.074v.106h.098a.095.095 0 00.053 0 .044.044 0 000-.04.044.044 0 000-.04.095.095 0 00-.053 0l-.098-.026z" fill="#000"/><path d="M32.951 3.442h-14v24.883h14V3.442z" fill="#7673C0"/><path d="M19.84 15.887a15.654 15.654 0 011.605-6.919 15.833 15.833 0 014.506-5.525 16.097 16.097 0 00-8.18-3.292c-2.985-.317-6 .203-8.7 1.501A15.94 15.94 0 002.502 7.49a15.696 15.696 0 00-2.437 8.395c0 2.969.844 5.878 2.437 8.395a15.94 15.94 0 006.57 5.837 16.155 16.155 0 008.7 1.502 16.097 16.097 0 008.18-3.293 15.832 15.832 0 01-4.506-5.523 15.654 15.654 0 01-1.606-6.916z" fill="#EB001B"/><path d="M50.311 25.688v-.492h.21v-.106h-.53v.106h.21v.51l.11-.018zm1.027 0v-.615h-.16l-.187.44-.187-.44h-.164v.615h.116v-.461l.173.4h.12l.173-.4v.465l.116-.004zM51.836 15.886c-.001 2.968-.846 5.877-2.439 8.393a15.941 15.941 0 01-6.568 5.836 16.155 16.155 0 01-8.699 1.501 16.097 16.097 0 01-8.179-3.29 15.86 15.86 0 004.505-5.526 15.681 15.681 0 001.609-6.916c0-2.397-.55-4.762-1.61-6.917a15.86 15.86 0 00-4.504-5.525 16.097 16.097 0 018.18-3.294c2.986-.317 6 .203 8.701 1.5a15.941 15.941 0 016.57 5.838 15.697 15.697 0 012.438 8.395l-.004.005z" fill="#00A1DF"/></svg><svg viewBox="0 0 490 490" id="photograph" xmlns="http://www.w3.org/2000/svg"><path d="M0 167.85v216.2c0 33 26.8 59.8 59.8 59.8h370.4c33 0 59.8-26.8 59.8-59.8v-216.2c0-31.4-25.5-56.9-56.9-56.9h-79.6l-1.9-8.3c-7.7-33.3-37-56.5-71.2-56.5h-70.9c-34.1 0-63.4 23.2-71.2 56.5l-1.9 8.3H56.9c-31.4 0-56.9 25.6-56.9 56.9zm146.2-32.4c5.7 0 10.6-3.9 11.9-9.5l4.1-17.8c5.2-22.1 24.6-37.5 47.3-37.5h70.9c22.7 0 42.1 15.4 47.3 37.5l4.1 17.8c1.3 5.5 6.2 9.5 11.9 9.5H433c17.9 0 32.4 14.5 32.4 32.4v216.2c0 19.5-15.8 35.3-35.3 35.3H59.8c-19.5 0-35.3-15.8-35.3-35.3v-216.2c0-17.9 14.5-32.4 32.4-32.4h89.3z" data-original="#000000" class="sactive-path" data-old_color="#000000" fill="#FFF"/><circle cx="82.9" cy="187.75" r="16.4" data-original="#000000" class="sactive-path" data-old_color="#000000" fill="#FFF"/><path d="M245 380.95c56.7 0 102.9-46.2 102.9-102.9s-46.2-102.9-102.9-102.9-102.9 46.1-102.9 102.9 46.2 102.9 102.9 102.9zm0-181.3c43.2 0 78.4 35.2 78.4 78.4s-35.2 78.4-78.4 78.4-78.4-35.2-78.4-78.4 35.2-78.4 78.4-78.4z" data-original="#000000" class="sactive-path" data-old_color="#000000" fill="#FFF"/></svg><svg fill="none" viewBox="0 0 40 40" id="pp" xmlns="http://www.w3.org/2000/svg"><path d="M28.71 2.784C27.52 1.39 25.366.792 22.61.792H14.61c-.564 0-1.043.421-1.131.992l-3.33 21.678a.7.7 0 00.678.815h4.938l1.24-8.073-.038.252c.088-.57.563-.991 1.126-.991h2.347c4.61 0 8.218-1.922 9.273-7.48.03-.165.058-.325.082-.481-.134-.073-.134-.073 0 0 .313-2.055-.003-3.453-1.085-4.72z" fill="#003087"/><path d="M28.71 2.784C27.52 1.39 25.366.792 22.61.792H14.61c-.564 0-1.043.421-1.131.992l-3.33 21.678a.7.7 0 00.678.815h4.938l1.24-8.073-.038.252c.088-.57.563-.991 1.126-.991h2.347c4.61 0 8.218-1.922 9.273-7.48.03-.165.058-.325.082-.481-.134-.073-.134-.073 0 0 .313-2.055-.003-3.453-1.085-4.72z" fill="#003087"/><path d="M18.339 7.53c.052-.343.267-.624.556-.767a.983.983 0 01.432-.1h6.27c.743 0 1.436.05 2.069.155a8.449 8.449 0 011.262.31c.311.106.601.23.867.376.314-2.056-.002-3.453-1.084-4.72C27.518 1.39 25.365.792 22.609.792H14.61c-.563 0-1.042.421-1.13.992l-3.33 21.677a.699.699 0 00.678.815h4.938l1.24-8.073 1.333-8.672z" fill="#002F86"/><path d="M29.796 7.504c-.025.157-.051.316-.082.48-1.055 5.559-4.664 7.481-9.273 7.481h-2.347a1.15 1.15 0 00-1.127.992l-1.201 7.82-.341 2.218a.612.612 0 00.593.713h4.162c.493 0 .912-.368.989-.867l.04-.218.785-5.103.05-.282c.078-.5.497-.867.99-.867h.622c4.032 0 7.19-1.682 8.112-6.544.385-2.032.186-3.729-.833-4.92a3.989 3.989 0 00-1.14-.903" fill="#009CDE"/><path d="M28.692 7.052a7.53 7.53 0 00-.498-.13 9.15 9.15 0 00-.528-.104 12.687 12.687 0 00-2.069-.154h-6.27a.97.97 0 00-.432.1c-.29.143-.503.423-.556.768l-1.333 8.672-.038.253a1.15 1.15 0 011.126-.992h2.347c4.61 0 8.219-1.921 9.273-7.48.031-.165.058-.324.082-.481a5.612 5.612 0 00-1.104-.452z" fill="#012069"/><path d="M2.635 34.089l-.53 3.126H0L1.552 28l3.22.006c.997 0 1.78.285 2.351.855.575.57.827 1.308.758 2.215-.05.62-.242 1.158-.579 1.614a3.214 3.214 0 01-1.336 1.044c-.55.24-1.168.36-1.853.36l-1.478-.005zm.29-1.716l1.268.013c.533-.013.942-.19 1.225-.532.283-.346.396-.77.339-1.272-.033-.257-.13-.46-.29-.607-.156-.152-.363-.237-.622-.254l-1.471-.006-.45 2.658zM11.618 37.215a1.904 1.904 0 01-.086-.62c-.456.515-1 .764-1.632.747-.579-.009-1.059-.207-1.44-.595a1.815 1.815 0 01-.536-1.412c.02-.742.322-1.312.905-1.708.583-.401 1.379-.602 2.389-.602l.677.013.074-.386.024-.336c-.016-.384-.203-.582-.56-.595-.443-.008-.716.243-.819.754l-2.031.006c.02-.46.166-.859.437-1.196.27-.342.638-.604 1.102-.785a3.751 3.751 0 011.49-.26c.505.013.946.123 1.323.33.382.202.667.487.856.854.19.363.26.783.216 1.26l-.499 3.221-.03.392c-.017.313.022.579.116.798l-.006.12h-1.97zm-1.158-1.38c.415.017.778-.17 1.09-.563l.203-1.101-.523-.006a1.345 1.345 0 00-.837.297 1.113 1.113 0 00-.413.766c-.02.173.01.316.092.43.087.11.216.169.388.177zM17.375 34.203l1.723-3.836h2.235L17.43 38.24c-.291.62-.628 1.068-1.01 1.342-.377.279-.829.418-1.354.418-.234 0-.532-.046-.893-.14l.154-1.525h.234c.25 0 .47-.042.659-.126.188-.08.346-.239.474-.475l.29-.57-1.066-6.797h2.093l.364 3.835z" fill="#002F86"/><path d="M24.038 34.25l-.544 2.963h-2.16l1.592-8.733 3.305.006c1.023 0 1.828.27 2.414.81.59.54.849 1.24.777 2.099a2.769 2.769 0 01-.594 1.53c-.346.431-.803.76-1.371.989-.565.228-1.199.342-1.902.342l-1.517-.006zm.297-1.626l1.302.012c.547-.012.966-.18 1.257-.504.29-.327.407-.73.348-1.205a.884.884 0 00-.297-.576c-.16-.144-.373-.224-.639-.24l-1.51-.006-.461 2.52zM33.258 37.213a1.68 1.68 0 01-.089-.588c-.467.488-1.026.724-1.674.708-.595-.008-1.087-.196-1.48-.564a1.65 1.65 0 01-.549-1.338c.021-.703.33-1.243.929-1.62.598-.379 1.416-.569 2.452-.569l.695.012.076-.366.025-.318c-.017-.364-.209-.551-.575-.563-.455-.008-.735.23-.84.713l-2.086.006c.021-.436.17-.813.449-1.133.278-.324.655-.572 1.131-.744.48-.176.99-.258 1.53-.246.517.012.97.116 1.358.312.392.192.684.462.878.81.194.343.268.741.221 1.193l-.512 3.053-.031.372c-.017.296.023.548.12.756l-.006.114h-2.023zm-1.188-1.308c.425.016.798-.162 1.118-.534l.209-1.043-.538-.006c-.332.008-.619.102-.859.282-.24.175-.381.417-.423.725-.021.164.01.3.094.408.089.104.222.16.399.168zM38.32 37.213h-2.086L37.914 28H40l-1.68 9.213z" fill="#009CDE"/></svg><svg fill="none" viewBox="0 0 64 40" id="visa" xmlns="http://www.w3.org/2000/svg"><path d="M64 40H0V0h64v40z" fill="#fff"/><path d="M1.066 33.5h61.866v5.458H1.066V33.5z" fill="#F7B600"/><path d="M1.066 6.506h61.866V1.05H1.066v5.457zM30.77 11.434l-3.1 14.26h-3.75l3.1-14.26h3.75zm15.774 9.208l1.975-5.355 1.134 5.355h-3.108zm4.186 5.053h3.467l-3.029-14.261H47.97c-.721 0-1.327.412-1.596 1.045l-5.627 13.216h3.938l.78-2.13h4.812l.454 2.13zm-9.788-4.656c.015-3.764-5.289-3.972-5.254-5.654.013-.51.507-1.055 1.59-1.194.537-.068 2.02-.123 3.699.638l.657-3.026c-.903-.32-2.063-.63-3.508-.63-3.707 0-6.314 1.938-6.335 4.714-.024 2.053 1.863 3.198 3.281 3.882 1.462.699 1.952 1.147 1.945 1.772-.01.956-1.167 1.38-2.242 1.396-1.886.03-2.98-.502-3.852-.901l-.68 3.126c.877.395 2.494.739 4.169.757 3.94 0 6.518-1.916 6.53-4.88zM25.41 11.434l-6.075 14.26h-3.964l-2.99-11.38c-.181-.7-.339-.957-.89-1.253-.902-.482-2.391-.933-3.7-1.213l.088-.414h6.382c.812 0 1.543.532 1.73 1.453l1.579 8.253 3.9-9.706h3.94zM35.569 29.62h-1.524v1.395h1.704v.42h-2.217v-3.87h2.13v.419h-1.617v1.223h1.524v.413zM36.536 27.358h.514v4.077h-.514v-4.077zM39.851 29.775c.006-.316-.134-.815-.712-.815-.525 0-.747.465-.788.815h1.5zm-1.506.362c.012.683.45.965.969.965.368 0 .596-.063.782-.144l.094.362c-.181.08-.496.178-.946.178-.87 0-1.389-.568-1.389-1.407 0-.838.502-1.493 1.325-1.493.928 0 1.167.793 1.167 1.304 0 .103-.005.177-.017.235h-1.985zM43.142 31.337c-.134.063-.432.161-.811.161-.852 0-1.407-.568-1.407-1.419 0-.855.595-1.481 1.518-1.481.303 0 .572.074.712.15l-.117.384a1.275 1.275 0 00-.595-.132c-.648 0-.998.476-.998 1.05 0 .644.42 1.04.98 1.04.292 0 .485-.069.63-.132l.088.38zM44.583 27.99v.665h.735v.385h-.735v1.499c0 .345.099.54.385.54a.96.96 0 00.298-.035l.023.385c-.1.035-.257.069-.455.069-.24 0-.432-.08-.555-.212-.14-.156-.198-.402-.198-.73V29.04h-.438v-.385h.438v-.517l.502-.149zM46.035 29.523c0-.328-.006-.61-.023-.868h.45l.023.552h.017c.128-.373.443-.61.788-.61.052 0 .093.007.14.012v.477c-.053-.011-.105-.011-.175-.011-.362 0-.619.264-.689.643a1.494 1.494 0 00-.017.235v1.482h-.514v-1.912zM48.351 30.05c0 .61.35 1.07.852 1.07.49 0 .858-.455.858-1.08 0-.472-.239-1.063-.846-1.063-.6 0-.864.551-.864 1.074zm2.236-.028c0 1.028-.73 1.476-1.407 1.476-.759 0-1.354-.552-1.354-1.43 0-.925.625-1.47 1.401-1.47.811 0 1.36.58 1.36 1.424zM51.374 29.408c0-.293-.006-.523-.023-.752h.455l.03.46h.01c.14-.26.468-.518.935-.518.39 0 .998.23.998 1.183v1.654h-.514v-1.602c0-.448-.169-.821-.654-.821a.739.739 0 00-.723.752v1.671h-.514v-2.027z" fill="#1A1F71"/></svg></svg>